<svg width="281" height="130" viewBox="0 0 281 130" fill="none" xmlns="http://www.w3.org/2000/svg">
<rect x="4.09434" y="3.51667" width="273" height="121" rx="5.5" transform="rotate(0.273523 4.09434 3.51667)" stroke="black" stroke-width="7"/>
<rect x="1.10869" y="0.502381" width="273" height="123" rx="8.5" transform="rotate(0.273523 1.10869 0.502381)" stroke="black"/>
<mask id="path-3-outside-1_63_43" maskUnits="userSpaceOnUse" x="20.5096" y="33.5969" width="183.308" height="65.8729" fill="black">
<rect fill="white" x="20.5096" y="33.5969" width="183.308" height="65.8729"/>
<path d="M22.859 60.6069L22.8771 56.815L34.589 56.8709C35.357 56.8745 36.0137 56.7177 36.5593 56.4003C37.1369 56.051 37.5711 55.6051 37.8617 55.0625C38.1523 54.5199 38.299 53.9445 38.3019 53.3366C38.3047 52.7606 38.1792 52.232 37.9255 51.7507C37.6719 51.2375 37.2738 50.8356 36.7312 50.545C36.2208 50.2226 35.5975 50.0596 34.8615 50.0561L29.9176 50.0325C28.3496 50.025 26.9748 49.7624 25.7933 49.2448C24.6439 48.6953 23.7357 47.907 23.0686 46.8798C22.4335 45.8527 22.1194 44.6032 22.1264 43.1312C22.1324 41.8832 22.4419 40.7327 23.0549 39.6796C23.668 38.6265 24.52 37.7826 25.6111 37.1478C26.7022 36.481 27.9518 36.1509 29.3598 36.1577L40.6397 36.2115L40.6216 40.0035L29.7737 39.9517C28.7817 39.947 27.9963 40.2472 27.4174 40.8525C26.8385 41.4577 26.5471 42.1763 26.5431 43.0083C26.5393 43.8083 26.8239 44.5137 27.397 45.1244C28.0022 45.7033 28.8489 45.9953 29.9368 46.0005L34.6408 46.023C36.4008 46.0314 37.8714 46.3264 39.0526 46.9081C40.266 47.4579 41.1742 48.2622 41.7771 49.3211C42.4121 50.3801 42.7259 51.6777 42.7186 53.2136C42.7123 54.5256 42.3864 55.7561 41.7409 56.905C41.0956 58.0219 40.1952 58.9297 39.0399 59.6281C37.9165 60.3268 36.6029 60.6725 35.0989 60.6653L22.859 60.6069ZM59.0644 61.3558C56.5684 61.3438 54.3631 60.7733 52.4485 59.6442C50.534 58.483 49.0213 56.9398 47.9105 55.0144C46.7998 53.0571 46.2502 50.8785 46.2617 48.4785C46.2732 46.0785 46.8435 43.9212 47.9726 42.0066C49.1019 40.06 50.6292 38.5312 52.5546 37.4204C54.48 36.2776 56.6908 35.7121 59.1867 35.7241C61.6827 35.736 63.8879 36.3225 65.8024 37.4837C67.749 38.613 69.2618 40.1402 70.3406 42.0654C71.4514 43.9907 72.001 46.1693 71.9894 48.6013C71.9779 51.0013 71.4076 53.1746 70.2783 55.1212C69.1811 57.036 67.6538 58.5647 65.6963 59.7074C63.771 60.8182 61.5603 61.3677 59.0644 61.3558ZM59.0825 57.5638C60.7785 57.5719 62.2523 57.1789 63.5041 56.3849C64.756 55.5909 65.7371 54.5235 66.4475 53.1829C67.158 51.8103 67.5174 50.276 67.5255 48.58C67.5336 46.884 67.1888 45.3624 66.4912 44.015C65.7938 42.6357 64.823 41.543 63.5789 40.7371C62.3347 39.9311 60.8646 39.5241 59.1686 39.516C57.5046 39.5081 56.0308 39.901 54.747 40.6949C53.4951 41.489 52.514 42.5723 51.8034 43.9449C51.093 45.2855 50.7337 46.8038 50.7256 48.4998C50.7175 50.1958 51.0622 51.7335 51.7596 53.1128C52.4572 54.4601 53.4281 55.5368 54.6722 56.3427C55.9484 57.1488 57.4185 57.5559 59.0825 57.5638ZM76.6338 60.8636L76.7041 46.1278C76.7132 44.2398 77.1534 42.5139 78.0249 40.95C78.8963 39.3862 80.1503 38.1442 81.7867 37.224C83.4231 36.3038 85.3933 35.8492 87.6973 35.8602C88.8173 35.8655 89.9365 36.0309 91.055 36.3562C92.1736 36.6495 93.2111 37.1665 94.1676 37.9071C95.1242 38.6156 95.8876 39.5793 96.4578 40.798L96.5058 40.7983C97.1516 39.5853 97.9562 38.6292 98.9195 37.9298C99.883 37.1984 100.925 36.6913 102.047 36.4087C103.168 36.094 104.305 35.9394 105.457 35.9449C107.729 35.9558 109.679 36.4291 111.306 37.3649C112.934 38.3007 114.176 39.5546 115.032 41.1267C115.889 42.6988 116.313 44.4289 116.304 46.3168L116.233 61.0527L111.817 61.0316L111.888 46.2958C111.894 45.0798 111.611 43.9744 111.04 42.9797C110.468 41.9849 109.688 41.1972 108.699 40.6165C107.742 40.0359 106.639 39.7426 105.391 39.7367C104.175 39.7309 103.054 40.0295 102.027 40.6326C101 41.2037 100.18 41.9838 99.5675 42.9729C98.9869 43.9301 98.6937 45.0168 98.6879 46.2327L98.6175 60.9686L94.2016 60.9475L94.2719 46.2117C94.2777 44.9957 93.9789 43.9062 93.3755 42.9433C92.8043 41.9486 92.008 41.1608 90.9868 40.5799C89.9977 39.9672 88.8792 39.6578 87.6312 39.6519C86.4152 39.6461 85.3098 39.9288 84.3151 40.5001C83.3524 41.0715 82.5806 41.8518 81.9999 42.841C81.4192 43.8303 81.1259 44.9329 81.1201 46.1489L81.0497 60.8847L76.6338 60.8636ZM133.784 61.7125C131.288 61.7006 129.083 61.13 127.168 60.0009C125.254 58.8397 123.741 57.2965 122.63 55.3712C121.52 53.4138 120.97 51.2352 120.981 48.8352C120.993 46.4352 121.563 44.2779 122.692 42.3633C123.822 40.4167 125.349 38.8879 127.274 37.7771C129.2 36.6343 131.411 36.0688 133.907 36.0808C136.402 36.0927 138.608 36.6792 140.522 37.8404C142.469 38.9697 143.982 40.4969 145.06 42.4221C146.171 44.3474 146.721 46.5261 146.709 48.958C146.698 51.358 146.127 53.5313 144.998 55.4779C143.901 57.3927 142.374 58.9214 140.416 60.0641C138.491 61.1749 136.28 61.7244 133.784 61.7125ZM133.802 57.9205C135.498 57.9286 136.972 57.5356 138.224 56.7416C139.476 55.9476 140.457 54.8802 141.167 53.5396C141.878 52.167 142.237 50.6327 142.245 48.9367C142.253 47.2407 141.909 45.7191 141.211 44.3717C140.514 42.9924 139.543 41.8997 138.299 41.0938C137.054 40.2878 135.584 39.8808 133.888 39.8727C132.224 39.8648 130.751 40.2577 129.467 41.0516C128.215 41.8457 127.234 42.929 126.523 44.3016C125.813 45.6422 125.454 47.1605 125.445 48.8565C125.437 50.5525 125.782 52.0902 126.479 53.4695C127.177 54.8168 128.148 55.8935 129.392 56.6994C130.668 57.5055 132.138 57.9126 133.802 57.9205ZM151.018 61.2187L151.036 57.4268L162.748 57.4827C163.516 57.4864 164.172 57.3295 164.718 57.0121C165.295 56.6628 165.73 56.2169 166.02 55.6743C166.311 55.1317 166.458 54.5564 166.46 53.9484C166.463 53.3724 166.338 52.8438 166.084 52.3626C165.83 51.8493 165.432 51.4474 164.89 51.1568C164.379 50.8344 163.756 50.6714 163.02 50.6679L158.076 50.6443C156.508 50.6368 155.133 50.3743 153.952 49.8566C152.802 49.3071 151.894 48.5188 151.227 47.4916C150.592 46.4645 150.278 45.215 150.285 43.743C150.291 42.4951 150.6 41.3445 151.213 40.2914C151.827 39.2383 152.679 38.3944 153.77 37.7596C154.861 37.0928 156.11 36.7628 157.518 36.7695L168.798 36.8233L168.78 40.6153L157.932 40.5635C156.94 40.5588 156.155 40.859 155.576 41.4643C154.997 42.0695 154.706 42.7881 154.702 43.6201C154.698 44.4201 154.982 45.1255 155.556 45.7362C156.161 46.3151 157.007 46.6072 158.095 46.6124L162.799 46.6348C164.559 46.6432 166.03 46.9382 167.211 47.5199C168.425 48.0697 169.333 48.874 169.936 49.9329C170.571 50.992 170.884 52.2895 170.877 53.8255C170.871 55.1374 170.545 56.3679 169.899 57.5168C169.254 58.6338 168.354 59.5415 167.198 60.24C166.075 60.9386 164.761 61.2843 163.257 61.2772L151.018 61.2187ZM23.1672 96.6088L23.3276 63.0092L41.5674 63.0963C43.2633 63.1043 44.7495 63.4954 46.0258 64.2696C47.3023 65.0117 48.3055 66.0245 49.0353 67.308C49.7652 68.5915 50.1263 70.0492 50.1185 71.6812C50.1131 72.8012 49.8679 73.888 49.3829 74.9417C48.93 75.9635 48.2857 76.8565 47.4501 77.6205C46.6144 78.3845 45.6197 78.9558 44.4659 79.3343C45.7763 79.6605 46.9096 80.242 47.8656 81.0785C48.8216 81.9151 49.5689 82.9107 50.1074 84.0653C50.6778 85.22 50.9599 86.4694 50.9535 87.8133C50.9455 89.4773 50.5544 90.9795 49.7799 92.3198C49.0055 93.6601 47.9284 94.727 46.5486 95.5204C45.2008 96.314 43.5829 96.7063 41.695 96.6972L23.1672 96.6088ZM27.7946 92.5508L40.6584 92.6123C41.8424 92.6179 42.8516 92.3667 43.6861 91.8587C44.5207 91.3187 45.1639 90.6337 45.6159 89.8039C46.1 88.9422 46.3444 88.0313 46.349 87.0714C46.3537 86.0794 46.118 85.1822 45.6418 84.3799C45.1658 83.5457 44.497 82.8705 43.6354 82.3543C42.7741 81.8062 41.7514 81.5293 40.5674 81.5237L27.8475 81.463L27.7946 92.5508ZM27.8661 77.575L39.9139 77.6325C41.0339 77.6379 42.0111 77.4025 42.8453 76.9265C43.7118 76.4186 44.3709 75.7658 44.8227 74.9679C45.3067 74.1382 45.5508 73.2754 45.5551 72.3794C45.5595 71.4514 45.3396 70.6023 44.8952 69.8322C44.4511 69.0301 43.8301 68.3871 43.0324 67.9033C42.2347 67.4195 41.3079 67.1751 40.2519 67.17L27.916 67.1111L27.8661 77.575ZM65.6578 97.3877C63.2898 97.3763 61.2445 96.8066 59.5219 95.6783C57.7994 94.5181 56.4788 92.9598 55.5602 91.0034C54.6415 89.047 54.1878 86.8848 54.1991 84.5168C54.2106 82.1168 54.7329 79.9593 55.766 78.0442C56.7993 76.0971 58.2787 74.5682 60.204 73.4573C62.1295 72.3145 64.4362 71.7495 67.1242 71.7624C69.7161 71.7747 71.9374 72.3453 73.7881 73.4742C75.6387 74.603 77.0554 76.1298 78.0382 78.0545C79.0531 79.9794 79.5548 82.1258 79.5435 84.4938L79.4844 96.8777L75.0204 96.8563L75.0443 91.8644L74.9483 91.8639C74.4639 92.7896 73.8036 93.6825 72.9675 94.5425C72.1635 95.3707 71.1522 96.0539 69.9337 96.5921C68.7151 97.1302 67.2898 97.3954 65.6578 97.3877ZM66.8279 93.6012C68.4279 93.6088 69.8377 93.2316 71.0573 92.4694C72.3092 91.6753 73.2743 90.5919 73.9529 89.2192C74.6636 87.8145 75.0231 86.2482 75.0313 84.5203C75.0394 82.8243 74.7107 81.3027 74.0451 79.9555C73.4115 78.6085 72.4886 77.548 71.2763 76.7742C70.0641 75.9684 68.642 75.5616 67.0101 75.5539C65.2821 75.5456 63.7922 75.9385 62.5404 76.7325C61.3206 77.5267 60.3714 78.6102 59.6928 79.983C59.0464 81.3239 58.7191 82.8584 58.7108 84.5863C58.7029 86.2503 59.0156 87.7718 59.6491 89.1509C60.2826 90.4979 61.2055 91.5743 62.4177 92.3801C63.6298 93.1859 65.0999 93.5929 66.8279 93.6012ZM85.4116 96.9059L85.4952 79.3861C85.5056 77.2102 86.1217 75.5171 87.3435 74.3069C88.5974 73.0649 90.3124 72.4491 92.4884 72.4594L97.5283 72.4835L97.5102 76.2755L93.2863 76.2553C92.2303 76.2503 91.3968 76.5503 90.7859 77.1554C90.207 77.7606 89.915 78.6072 89.9098 79.6952L89.8275 96.927L85.4116 96.9059ZM100.533 96.9781L100.65 72.4984L105.114 72.5197L104.997 96.9994L100.533 96.9781ZM102.924 68.6212C102.124 68.6174 101.422 68.3261 100.816 67.7472C100.243 67.1364 99.9587 66.431 99.9626 65.6311C99.9664 64.8311 100.258 64.1444 100.836 63.5712C101.447 62.9661 102.153 62.6655 102.953 62.6693C103.753 62.6731 104.439 62.9804 105.012 63.5911C105.618 64.17 105.918 64.8595 105.914 65.6595C105.911 66.4595 105.603 67.162 104.992 67.7671C104.414 68.3403 103.724 68.625 102.924 68.6212ZM110.674 97.0265L110.692 93.2346L122.404 93.2905C123.172 93.2942 123.829 93.1373 124.375 92.8199C124.952 92.4707 125.386 92.0247 125.677 91.4821C125.968 90.9395 126.114 90.3642 126.117 89.7562C126.12 89.1802 125.994 88.6516 125.741 88.1704C125.487 87.6572 125.089 87.2553 124.546 86.9647C124.036 86.6422 123.413 86.4792 122.677 86.4757L117.733 86.4521C116.165 86.4446 114.79 86.1821 113.609 85.6644C112.459 85.1149 111.551 84.3266 110.884 83.2994C110.249 82.2723 109.935 81.0228 109.942 79.5509C109.948 78.3029 110.257 77.1523 110.87 76.0992C111.483 75.0462 112.335 74.2022 113.426 73.5674C114.518 72.9006 115.767 72.5706 117.175 72.5773L128.455 72.6312L128.437 76.4231L117.589 76.3713C116.597 76.3666 115.812 76.6668 115.233 77.2721C114.654 77.8773 114.362 78.5959 114.358 79.4279C114.355 80.2279 114.639 80.9333 115.212 81.544C115.818 82.1229 116.664 82.415 117.752 82.4202L122.456 82.4426C124.216 82.451 125.687 82.7461 126.868 83.3277C128.081 83.8775 128.989 84.6818 129.592 85.7407C130.227 86.7998 130.541 88.0973 130.534 89.6333C130.528 90.9453 130.202 92.1757 129.556 93.3246C128.911 94.4416 128.011 95.3493 126.855 96.0478C125.732 96.7464 124.418 97.0922 122.914 97.085L110.674 97.0265ZM143.011 97.1809C140.835 97.1705 139.126 96.5384 137.884 95.2844C136.674 94.0306 136.074 92.3318 136.085 90.1878L136.198 66.524L140.614 66.5451L140.502 89.9209C140.497 90.9768 140.781 91.8262 141.354 92.469C141.959 93.0799 142.789 93.3878 143.845 93.3929L148.789 93.4165L148.771 97.2084L143.011 97.1809ZM131.926 76.4398L131.944 72.6478L148.984 72.7292L148.966 76.5211L131.926 76.4398ZM162.669 97.8508C160.301 97.8395 158.256 97.2697 156.533 96.1415C154.811 94.9812 153.49 93.4229 152.572 91.4665C151.653 89.5101 151.199 87.3479 151.211 84.9799C151.222 82.58 151.744 80.4224 152.777 78.5073C153.811 76.5602 155.29 75.0313 157.215 73.9205C159.141 72.7776 161.448 72.2127 164.136 72.2255C166.728 72.2379 168.949 72.8085 170.799 73.9373C172.65 75.0662 174.067 76.5929 175.05 78.5177C176.064 80.4425 176.566 82.5889 176.555 84.9569L176.496 97.3408L172.032 97.3195L172.056 92.3275L171.96 92.3271C171.475 93.2528 170.815 94.1456 169.979 95.0056C169.175 95.8338 168.164 96.517 166.945 97.0552C165.726 97.5934 164.301 97.8586 162.669 97.8508ZM163.839 94.0643C165.439 94.072 166.849 93.6947 168.069 92.9325C169.321 92.1385 170.286 91.0551 170.964 89.6823C171.675 88.2777 172.034 86.7114 172.043 84.9834C172.051 83.2874 171.722 81.7658 171.057 80.4186C170.423 79.0716 169.5 78.0112 168.288 77.2374C167.076 76.4316 165.653 76.0248 164.021 76.017C162.293 76.0087 160.804 76.4016 159.552 77.1957C158.332 77.9898 157.383 79.0733 156.704 80.4461C156.058 81.787 155.73 83.3215 155.722 85.0495C155.714 86.7134 156.027 88.235 156.66 89.614C157.294 90.961 158.217 92.0375 159.429 92.8432C160.641 93.649 162.111 94.0561 163.839 94.0643ZM182.231 97.3682L182.249 93.5762L193.961 93.6321C194.729 93.6358 195.386 93.4789 195.931 93.1615C196.509 92.8123 196.943 92.3663 197.234 91.8237C197.524 91.2811 197.671 90.7058 197.674 90.0978C197.677 89.5218 197.551 88.9932 197.297 88.512C197.044 87.9988 196.646 87.5969 196.103 87.3063C195.593 86.9838 194.969 86.8208 194.233 86.8173L189.29 86.7937C187.722 86.7862 186.347 86.5237 185.165 86.006C184.016 85.4565 183.108 84.6682 182.441 83.641C181.805 82.614 181.491 81.3644 181.498 79.8925C181.504 78.6445 181.814 77.4939 182.427 76.4409C183.04 75.3878 183.892 74.5438 184.983 73.909C186.074 73.2422 187.324 72.9122 188.732 72.9189L200.012 72.9728L199.994 76.7647L189.146 76.7129C188.154 76.7082 187.368 77.0084 186.789 77.6137C186.21 78.2189 185.919 78.9376 185.915 79.7695C185.911 80.5695 186.196 81.2749 186.769 81.8856C187.374 82.4645 188.221 82.7566 189.309 82.7618L194.013 82.7842C195.773 82.7926 197.243 83.0877 198.425 83.6693C199.638 84.2191 200.546 85.0234 201.149 86.0823C201.784 87.1414 202.098 88.4389 202.09 89.9749C202.084 91.2869 201.758 92.5173 201.113 93.6663C200.468 94.7832 199.567 95.6909 198.412 96.3894C197.288 97.088 195.975 97.4338 194.471 97.4266L182.231 97.3682Z"/>
</mask>
<path d="M22.859 60.6069L22.8771 56.815L34.589 56.8709C35.357 56.8745 36.0137 56.7177 36.5593 56.4003C37.1369 56.051 37.5711 55.6051 37.8617 55.0625C38.1523 54.5199 38.299 53.9445 38.3019 53.3366C38.3047 52.7606 38.1792 52.232 37.9255 51.7507C37.6719 51.2375 37.2738 50.8356 36.7312 50.545C36.2208 50.2226 35.5975 50.0596 34.8615 50.0561L29.9176 50.0325C28.3496 50.025 26.9748 49.7624 25.7933 49.2448C24.6439 48.6953 23.7357 47.907 23.0686 46.8798C22.4335 45.8527 22.1194 44.6032 22.1264 43.1312C22.1324 41.8832 22.4419 40.7327 23.0549 39.6796C23.668 38.6265 24.52 37.7826 25.6111 37.1478C26.7022 36.481 27.9518 36.1509 29.3598 36.1577L40.6397 36.2115L40.6216 40.0035L29.7737 39.9517C28.7817 39.947 27.9963 40.2472 27.4174 40.8525C26.8385 41.4577 26.5471 42.1763 26.5431 43.0083C26.5393 43.8083 26.8239 44.5137 27.397 45.1244C28.0022 45.7033 28.8489 45.9953 29.9368 46.0005L34.6408 46.023C36.4008 46.0314 37.8714 46.3264 39.0526 46.9081C40.266 47.4579 41.1742 48.2622 41.7771 49.3211C42.4121 50.3801 42.7259 51.6777 42.7186 53.2136C42.7123 54.5256 42.3864 55.7561 41.7409 56.905C41.0956 58.0219 40.1952 58.9297 39.0399 59.6281C37.9165 60.3268 36.6029 60.6725 35.0989 60.6653L22.859 60.6069ZM59.0644 61.3558C56.5684 61.3438 54.3631 60.7733 52.4485 59.6442C50.534 58.483 49.0213 56.9398 47.9105 55.0144C46.7998 53.0571 46.2502 50.8785 46.2617 48.4785C46.2732 46.0785 46.8435 43.9212 47.9726 42.0066C49.1019 40.06 50.6292 38.5312 52.5546 37.4204C54.48 36.2776 56.6908 35.7121 59.1867 35.7241C61.6827 35.736 63.8879 36.3225 65.8024 37.4837C67.749 38.613 69.2618 40.1402 70.3406 42.0654C71.4514 43.9907 72.001 46.1693 71.9894 48.6013C71.9779 51.0013 71.4076 53.1746 70.2783 55.1212C69.1811 57.036 67.6538 58.5647 65.6963 59.7074C63.771 60.8182 61.5603 61.3677 59.0644 61.3558ZM59.0825 57.5638C60.7785 57.5719 62.2523 57.1789 63.5041 56.3849C64.756 55.5909 65.7371 54.5235 66.4475 53.1829C67.158 51.8103 67.5174 50.276 67.5255 48.58C67.5336 46.884 67.1888 45.3624 66.4912 44.015C65.7938 42.6357 64.823 41.543 63.5789 40.7371C62.3347 39.9311 60.8646 39.5241 59.1686 39.516C57.5046 39.5081 56.0308 39.901 54.747 40.6949C53.4951 41.489 52.514 42.5723 51.8034 43.9449C51.093 45.2855 50.7337 46.8038 50.7256 48.4998C50.7175 50.1958 51.0622 51.7335 51.7596 53.1128C52.4572 54.4601 53.4281 55.5368 54.6722 56.3427C55.9484 57.1488 57.4185 57.5559 59.0825 57.5638ZM76.6338 60.8636L76.7041 46.1278C76.7132 44.2398 77.1534 42.5139 78.0249 40.95C78.8963 39.3862 80.1503 38.1442 81.7867 37.224C83.4231 36.3038 85.3933 35.8492 87.6973 35.8602C88.8173 35.8655 89.9365 36.0309 91.055 36.3562C92.1736 36.6495 93.2111 37.1665 94.1676 37.9071C95.1242 38.6156 95.8876 39.5793 96.4578 40.798L96.5058 40.7983C97.1516 39.5853 97.9562 38.6292 98.9195 37.9298C99.883 37.1984 100.925 36.6913 102.047 36.4087C103.168 36.094 104.305 35.9394 105.457 35.9449C107.729 35.9558 109.679 36.4291 111.306 37.3649C112.934 38.3007 114.176 39.5546 115.032 41.1267C115.889 42.6988 116.313 44.4289 116.304 46.3168L116.233 61.0527L111.817 61.0316L111.888 46.2958C111.894 45.0798 111.611 43.9744 111.04 42.9797C110.468 41.9849 109.688 41.1972 108.699 40.6165C107.742 40.0359 106.639 39.7426 105.391 39.7367C104.175 39.7309 103.054 40.0295 102.027 40.6326C101 41.2037 100.18 41.9838 99.5675 42.9729C98.9869 43.9301 98.6937 45.0168 98.6879 46.2327L98.6175 60.9686L94.2016 60.9475L94.2719 46.2117C94.2777 44.9957 93.9789 43.9062 93.3755 42.9433C92.8043 41.9486 92.008 41.1608 90.9868 40.5799C89.9977 39.9672 88.8792 39.6578 87.6312 39.6519C86.4152 39.6461 85.3098 39.9288 84.3151 40.5001C83.3524 41.0715 82.5806 41.8518 81.9999 42.841C81.4192 43.8303 81.1259 44.9329 81.1201 46.1489L81.0497 60.8847L76.6338 60.8636ZM133.784 61.7125C131.288 61.7006 129.083 61.13 127.168 60.0009C125.254 58.8397 123.741 57.2965 122.63 55.3712C121.52 53.4138 120.97 51.2352 120.981 48.8352C120.993 46.4352 121.563 44.2779 122.692 42.3633C123.822 40.4167 125.349 38.8879 127.274 37.7771C129.2 36.6343 131.411 36.0688 133.907 36.0808C136.402 36.0927 138.608 36.6792 140.522 37.8404C142.469 38.9697 143.982 40.4969 145.06 42.4221C146.171 44.3474 146.721 46.5261 146.709 48.958C146.698 51.358 146.127 53.5313 144.998 55.4779C143.901 57.3927 142.374 58.9214 140.416 60.0641C138.491 61.1749 136.28 61.7244 133.784 61.7125ZM133.802 57.9205C135.498 57.9286 136.972 57.5356 138.224 56.7416C139.476 55.9476 140.457 54.8802 141.167 53.5396C141.878 52.167 142.237 50.6327 142.245 48.9367C142.253 47.2407 141.909 45.7191 141.211 44.3717C140.514 42.9924 139.543 41.8997 138.299 41.0938C137.054 40.2878 135.584 39.8808 133.888 39.8727C132.224 39.8648 130.751 40.2577 129.467 41.0516C128.215 41.8457 127.234 42.929 126.523 44.3016C125.813 45.6422 125.454 47.1605 125.445 48.8565C125.437 50.5525 125.782 52.0902 126.479 53.4695C127.177 54.8168 128.148 55.8935 129.392 56.6994C130.668 57.5055 132.138 57.9126 133.802 57.9205ZM151.018 61.2187L151.036 57.4268L162.748 57.4827C163.516 57.4864 164.172 57.3295 164.718 57.0121C165.295 56.6628 165.73 56.2169 166.02 55.6743C166.311 55.1317 166.458 54.5564 166.46 53.9484C166.463 53.3724 166.338 52.8438 166.084 52.3626C165.83 51.8493 165.432 51.4474 164.89 51.1568C164.379 50.8344 163.756 50.6714 163.02 50.6679L158.076 50.6443C156.508 50.6368 155.133 50.3743 153.952 49.8566C152.802 49.3071 151.894 48.5188 151.227 47.4916C150.592 46.4645 150.278 45.215 150.285 43.743C150.291 42.4951 150.6 41.3445 151.213 40.2914C151.827 39.2383 152.679 38.3944 153.77 37.7596C154.861 37.0928 156.11 36.7628 157.518 36.7695L168.798 36.8233L168.78 40.6153L157.932 40.5635C156.94 40.5588 156.155 40.859 155.576 41.4643C154.997 42.0695 154.706 42.7881 154.702 43.6201C154.698 44.4201 154.982 45.1255 155.556 45.7362C156.161 46.3151 157.007 46.6072 158.095 46.6124L162.799 46.6348C164.559 46.6432 166.03 46.9382 167.211 47.5199C168.425 48.0697 169.333 48.874 169.936 49.9329C170.571 50.992 170.884 52.2895 170.877 53.8255C170.871 55.1374 170.545 56.3679 169.899 57.5168C169.254 58.6338 168.354 59.5415 167.198 60.24C166.075 60.9386 164.761 61.2843 163.257 61.2772L151.018 61.2187ZM23.1672 96.6088L23.3276 63.0092L41.5674 63.0963C43.2633 63.1043 44.7495 63.4954 46.0258 64.2696C47.3023 65.0117 48.3055 66.0245 49.0353 67.308C49.7652 68.5915 50.1263 70.0492 50.1185 71.6812C50.1131 72.8012 49.8679 73.888 49.3829 74.9417C48.93 75.9635 48.2857 76.8565 47.4501 77.6205C46.6144 78.3845 45.6197 78.9558 44.4659 79.3343C45.7763 79.6605 46.9096 80.242 47.8656 81.0785C48.8216 81.9151 49.5689 82.9107 50.1074 84.0653C50.6778 85.22 50.9599 86.4694 50.9535 87.8133C50.9455 89.4773 50.5544 90.9795 49.7799 92.3198C49.0055 93.6601 47.9284 94.727 46.5486 95.5204C45.2008 96.314 43.5829 96.7063 41.695 96.6972L23.1672 96.6088ZM27.7946 92.5508L40.6584 92.6123C41.8424 92.6179 42.8516 92.3667 43.6861 91.8587C44.5207 91.3187 45.1639 90.6337 45.6159 89.8039C46.1 88.9422 46.3444 88.0313 46.349 87.0714C46.3537 86.0794 46.118 85.1822 45.6418 84.3799C45.1658 83.5457 44.497 82.8705 43.6354 82.3543C42.7741 81.8062 41.7514 81.5293 40.5674 81.5237L27.8475 81.463L27.7946 92.5508ZM27.8661 77.575L39.9139 77.6325C41.0339 77.6379 42.0111 77.4025 42.8453 76.9265C43.7118 76.4186 44.3709 75.7658 44.8227 74.9679C45.3067 74.1382 45.5508 73.2754 45.5551 72.3794C45.5595 71.4514 45.3396 70.6023 44.8952 69.8322C44.4511 69.0301 43.8301 68.3871 43.0324 67.9033C42.2347 67.4195 41.3079 67.1751 40.2519 67.17L27.916 67.1111L27.8661 77.575ZM65.6578 97.3877C63.2898 97.3763 61.2445 96.8066 59.5219 95.6783C57.7994 94.5181 56.4788 92.9598 55.5602 91.0034C54.6415 89.047 54.1878 86.8848 54.1991 84.5168C54.2106 82.1168 54.7329 79.9593 55.766 78.0442C56.7993 76.0971 58.2787 74.5682 60.204 73.4573C62.1295 72.3145 64.4362 71.7495 67.1242 71.7624C69.7161 71.7747 71.9374 72.3453 73.7881 73.4742C75.6387 74.603 77.0554 76.1298 78.0382 78.0545C79.0531 79.9794 79.5548 82.1258 79.5435 84.4938L79.4844 96.8777L75.0204 96.8563L75.0443 91.8644L74.9483 91.8639C74.4639 92.7896 73.8036 93.6825 72.9675 94.5425C72.1635 95.3707 71.1522 96.0539 69.9337 96.5921C68.7151 97.1302 67.2898 97.3954 65.6578 97.3877ZM66.8279 93.6012C68.4279 93.6088 69.8377 93.2316 71.0573 92.4694C72.3092 91.6753 73.2743 90.5919 73.9529 89.2192C74.6636 87.8145 75.0231 86.2482 75.0313 84.5203C75.0394 82.8243 74.7107 81.3027 74.0451 79.9555C73.4115 78.6085 72.4886 77.548 71.2763 76.7742C70.0641 75.9684 68.642 75.5616 67.0101 75.5539C65.2821 75.5456 63.7922 75.9385 62.5404 76.7325C61.3206 77.5267 60.3714 78.6102 59.6928 79.983C59.0464 81.3239 58.7191 82.8584 58.7108 84.5863C58.7029 86.2503 59.0156 87.7718 59.6491 89.1509C60.2826 90.4979 61.2055 91.5743 62.4177 92.3801C63.6298 93.1859 65.0999 93.5929 66.8279 93.6012ZM85.4116 96.9059L85.4952 79.3861C85.5056 77.2102 86.1217 75.5171 87.3435 74.3069C88.5974 73.0649 90.3124 72.4491 92.4884 72.4594L97.5283 72.4835L97.5102 76.2755L93.2863 76.2553C92.2303 76.2503 91.3968 76.5503 90.7859 77.1554C90.207 77.7606 89.915 78.6072 89.9098 79.6952L89.8275 96.927L85.4116 96.9059ZM100.533 96.9781L100.65 72.4984L105.114 72.5197L104.997 96.9994L100.533 96.9781ZM102.924 68.6212C102.124 68.6174 101.422 68.3261 100.816 67.7472C100.243 67.1364 99.9587 66.431 99.9626 65.6311C99.9664 64.8311 100.258 64.1444 100.836 63.5712C101.447 62.9661 102.153 62.6655 102.953 62.6693C103.753 62.6731 104.439 62.9804 105.012 63.5911C105.618 64.17 105.918 64.8595 105.914 65.6595C105.911 66.4595 105.603 67.162 104.992 67.7671C104.414 68.3403 103.724 68.625 102.924 68.6212ZM110.674 97.0265L110.692 93.2346L122.404 93.2905C123.172 93.2942 123.829 93.1373 124.375 92.8199C124.952 92.4707 125.386 92.0247 125.677 91.4821C125.968 90.9395 126.114 90.3642 126.117 89.7562C126.12 89.1802 125.994 88.6516 125.741 88.1704C125.487 87.6572 125.089 87.2553 124.546 86.9647C124.036 86.6422 123.413 86.4792 122.677 86.4757L117.733 86.4521C116.165 86.4446 114.79 86.1821 113.609 85.6644C112.459 85.1149 111.551 84.3266 110.884 83.2994C110.249 82.2723 109.935 81.0228 109.942 79.5509C109.948 78.3029 110.257 77.1523 110.87 76.0992C111.483 75.0462 112.335 74.2022 113.426 73.5674C114.518 72.9006 115.767 72.5706 117.175 72.5773L128.455 72.6312L128.437 76.4231L117.589 76.3713C116.597 76.3666 115.812 76.6668 115.233 77.2721C114.654 77.8773 114.362 78.5959 114.358 79.4279C114.355 80.2279 114.639 80.9333 115.212 81.544C115.818 82.1229 116.664 82.415 117.752 82.4202L122.456 82.4426C124.216 82.451 125.687 82.7461 126.868 83.3277C128.081 83.8775 128.989 84.6818 129.592 85.7407C130.227 86.7998 130.541 88.0973 130.534 89.6333C130.528 90.9453 130.202 92.1757 129.556 93.3246C128.911 94.4416 128.011 95.3493 126.855 96.0478C125.732 96.7464 124.418 97.0922 122.914 97.085L110.674 97.0265ZM143.011 97.1809C140.835 97.1705 139.126 96.5384 137.884 95.2844C136.674 94.0306 136.074 92.3318 136.085 90.1878L136.198 66.524L140.614 66.5451L140.502 89.9209C140.497 90.9768 140.781 91.8262 141.354 92.469C141.959 93.0799 142.789 93.3878 143.845 93.3929L148.789 93.4165L148.771 97.2084L143.011 97.1809ZM131.926 76.4398L131.944 72.6478L148.984 72.7292L148.966 76.5211L131.926 76.4398ZM162.669 97.8508C160.301 97.8395 158.256 97.2697 156.533 96.1415C154.811 94.9812 153.49 93.4229 152.572 91.4665C151.653 89.5101 151.199 87.3479 151.211 84.9799C151.222 82.58 151.744 80.4224 152.777 78.5073C153.811 76.5602 155.29 75.0313 157.215 73.9205C159.141 72.7776 161.448 72.2127 164.136 72.2255C166.728 72.2379 168.949 72.8085 170.799 73.9373C172.65 75.0662 174.067 76.5929 175.05 78.5177C176.064 80.4425 176.566 82.5889 176.555 84.9569L176.496 97.3408L172.032 97.3195L172.056 92.3275L171.96 92.3271C171.475 93.2528 170.815 94.1456 169.979 95.0056C169.175 95.8338 168.164 96.517 166.945 97.0552C165.726 97.5934 164.301 97.8586 162.669 97.8508ZM163.839 94.0643C165.439 94.072 166.849 93.6947 168.069 92.9325C169.321 92.1385 170.286 91.0551 170.964 89.6823C171.675 88.2777 172.034 86.7114 172.043 84.9834C172.051 83.2874 171.722 81.7658 171.057 80.4186C170.423 79.0716 169.5 78.0112 168.288 77.2374C167.076 76.4316 165.653 76.0248 164.021 76.017C162.293 76.0087 160.804 76.4016 159.552 77.1957C158.332 77.9898 157.383 79.0733 156.704 80.4461C156.058 81.787 155.73 83.3215 155.722 85.0495C155.714 86.7134 156.027 88.235 156.66 89.614C157.294 90.961 158.217 92.0375 159.429 92.8432C160.641 93.649 162.111 94.0561 163.839 94.0643ZM182.231 97.3682L182.249 93.5762L193.961 93.6321C194.729 93.6358 195.386 93.4789 195.931 93.1615C196.509 92.8123 196.943 92.3663 197.234 91.8237C197.524 91.2811 197.671 90.7058 197.674 90.0978C197.677 89.5218 197.551 88.9932 197.297 88.512C197.044 87.9988 196.646 87.5969 196.103 87.3063C195.593 86.9838 194.969 86.8208 194.233 86.8173L189.29 86.7937C187.722 86.7862 186.347 86.5237 185.165 86.006C184.016 85.4565 183.108 84.6682 182.441 83.641C181.805 82.614 181.491 81.3644 181.498 79.8925C181.504 78.6445 181.814 77.4939 182.427 76.4409C183.04 75.3878 183.892 74.5438 184.983 73.909C186.074 73.2422 187.324 72.9122 188.732 72.9189L200.012 72.9728L199.994 76.7647L189.146 76.7129C188.154 76.7082 187.368 77.0084 186.789 77.6137C186.21 78.2189 185.919 78.9376 185.915 79.7695C185.911 80.5695 186.196 81.2749 186.769 81.8856C187.374 82.4645 188.221 82.7566 189.309 82.7618L194.013 82.7842C195.773 82.7926 197.243 83.0877 198.425 83.6693C199.638 84.2191 200.546 85.0234 201.149 86.0823C201.784 87.1414 202.098 88.4389 202.09 89.9749C202.084 91.2869 201.758 92.5173 201.113 93.6663C200.468 94.7832 199.567 95.6909 198.412 96.3894C197.288 97.088 195.975 97.4338 194.471 97.4266L182.231 97.3682Z" fill="black"/>
<path d="M22.859 60.6069L21.859 60.6021L21.8543 61.6021L22.8543 61.6069L22.859 60.6069ZM22.8771 56.815L22.8819 55.815L21.8819 55.8102L21.8771 56.8102L22.8771 56.815ZM36.5593 56.4003L37.0622 57.2646L37.0694 57.2604L37.0766 57.256L36.5593 56.4003ZM37.8617 55.0625L36.9801 54.5904L37.8617 55.0625ZM37.9255 51.7507L37.0289 52.1937L37.0348 52.2055L37.0409 52.2171L37.9255 51.7507ZM36.7312 50.545L36.1972 51.3905L36.2275 51.4096L36.2591 51.4266L36.7312 50.545ZM25.7933 49.2448L25.362 50.147L25.3769 50.1541L25.392 50.1607L25.7933 49.2448ZM23.0686 46.8798L22.218 47.4057L22.2239 47.4151L22.2299 47.4244L23.0686 46.8798ZM25.6111 37.1478L26.114 38.0121L26.1233 38.0067L26.1325 38.0011L25.6111 37.1478ZM40.6397 36.2115L41.6397 36.2163L41.6445 35.2163L40.6445 35.2115L40.6397 36.2115ZM40.6216 40.0035L40.6168 41.0035L41.6168 41.0082L41.6216 40.0082L40.6216 40.0035ZM27.4174 40.8525L26.6947 40.1612L26.6947 40.1612L27.4174 40.8525ZM27.397 45.1244L26.6678 45.8087L26.6863 45.8284L26.7058 45.8471L27.397 45.1244ZM39.0526 46.9081L38.6109 47.8052L38.6253 47.8123L38.6399 47.8189L39.0526 46.9081ZM41.7771 49.3211L40.9081 49.8159L40.9137 49.8257L40.9195 49.8353L41.7771 49.3211ZM41.7409 56.905L42.6068 57.4053L42.6127 57.3948L41.7409 56.905ZM39.0399 59.6282L38.5225 58.7723L38.5118 58.779L39.0399 59.6282ZM22.859 60.6069L23.859 60.6117L23.8771 56.8197L22.8771 56.815L21.8771 56.8102L21.859 60.6021L22.859 60.6069ZM22.8771 56.815L22.8724 57.8149L34.5842 57.8709L34.589 56.8709L34.5938 55.8709L22.8819 55.815L22.8771 56.815ZM34.589 56.8709L34.5842 57.8709C35.4919 57.8752 36.3323 57.6893 37.0622 57.2646L36.5593 56.4003L36.0564 55.5359C35.6952 55.7461 35.2221 55.8739 34.5938 55.8709L34.589 56.8709ZM36.5593 56.4003L37.0766 57.256C37.7926 56.8232 38.3598 56.2505 38.7432 55.5346L37.8617 55.0625L36.9801 54.5904C36.7823 54.9597 36.4812 55.2789 36.0419 55.5445L36.5593 56.4003ZM37.8617 55.0625L38.7432 55.5346C39.1098 54.85 39.2982 54.1145 39.3019 53.3413L38.3019 53.3366L37.3019 53.3318C37.2998 53.7746 37.1947 54.1897 36.9801 54.5904L37.8617 55.0625ZM38.3019 53.3366L39.3019 53.3413C39.3054 52.6112 39.1448 51.9193 38.8101 51.2844L37.9255 51.7507L37.0409 52.2171C37.2135 52.5446 37.3039 52.91 37.3019 53.3318L38.3019 53.3366ZM37.9255 51.7507L38.822 51.3078C38.4691 50.5934 37.9151 50.0446 37.2033 49.6635L36.7312 50.545L36.2591 51.4266C36.6326 51.6266 36.8748 51.8817 37.0289 52.1937L37.9255 51.7507ZM36.7312 50.545L37.2653 49.6996C36.5648 49.2571 35.7485 49.0603 34.8663 49.0561L34.8615 50.0561L34.8568 51.0561C35.4465 51.0589 35.8767 51.1881 36.1972 51.3905L36.7312 50.545ZM34.8615 50.0561L34.8663 49.0561L29.9224 49.0325L29.9176 50.0325L29.9128 51.0325L34.8568 51.0561L34.8615 50.0561ZM29.9176 50.0325L29.9224 49.0325C28.4622 49.0255 27.2272 48.7812 26.1946 48.3288L25.7933 49.2448L25.392 50.1607C26.7225 50.7436 28.2371 51.0245 29.9128 51.0325L29.9176 50.0325ZM25.7933 49.2448L26.2246 48.3426C25.2343 47.8692 24.4699 47.2015 23.9072 46.3351L23.0686 46.8798L22.2299 47.4244C23.0014 48.6124 24.0535 49.5214 25.362 50.147L25.7933 49.2448ZM23.0686 46.8798L23.9191 46.3538C23.4022 45.5179 23.1201 44.4617 23.1264 43.136L22.1264 43.1312L21.1265 43.1264C21.1187 44.7447 21.4647 46.1875 22.218 47.4057L23.0686 46.8798ZM22.1264 43.1312L23.1264 43.136C23.1316 42.0587 23.3964 41.0806 23.9192 40.1827L23.0549 39.6796L22.1907 39.1765C21.4874 40.3847 21.1332 41.7078 21.1265 43.1264L22.1264 43.1312ZM23.0549 39.6796L23.9192 40.1827C24.4419 39.2848 25.167 38.5631 26.114 38.0121L25.6111 37.1478L25.1082 36.2834C23.873 37.0021 22.8941 37.9683 22.1907 39.1765L23.0549 39.6796ZM25.6111 37.1478L26.1325 38.0011C27.0495 37.4407 28.1133 37.1517 29.355 37.1577L29.3598 36.1577L29.3646 35.1577C27.7904 35.1502 26.355 35.5213 25.0896 36.2945L25.6111 37.1478ZM29.3598 36.1577L29.355 37.1577L40.6349 37.2115L40.6397 36.2115L40.6445 35.2115L29.3646 35.1577L29.3598 36.1577ZM40.6397 36.2115L39.6397 36.2067L39.6216 39.9987L40.6216 40.0035L41.6216 40.0082L41.6397 36.2163L40.6397 36.2115ZM40.6216 40.0035L40.6264 39.0035L29.7785 38.9517L29.7737 39.9517L29.7689 40.9517L40.6168 41.0035L40.6216 40.0035ZM29.7737 39.9517L29.7785 38.9517C28.5668 38.9459 27.4983 39.3211 26.6947 40.1612L27.4174 40.8525L28.14 41.5437C28.4943 41.1733 28.9966 40.948 29.7689 40.9517L29.7737 39.9517ZM27.4174 40.8525L26.6947 40.1612C25.9403 40.95 25.5483 41.9138 25.5431 43.0035L26.5431 43.0083L27.5431 43.0131C27.5458 42.4388 27.7367 41.9654 28.14 41.5437L27.4174 40.8525ZM26.5431 43.0083L25.5431 43.0035C25.538 44.0723 25.9287 45.021 26.6678 45.8087L27.397 45.1244L28.1262 44.4401C27.7191 44.0063 27.5405 43.5443 27.5431 43.0131L26.5431 43.0083ZM27.397 45.1244L26.7058 45.8471C27.5461 46.6508 28.6673 46.9945 29.9321 47.0005L29.9368 46.0005L29.9416 45.0005C29.0304 44.9962 28.4583 44.7558 28.0882 44.4017L27.397 45.1244ZM29.9368 46.0005L29.9321 47.0005L34.636 47.023L34.6408 46.023L34.6456 45.023L29.9416 45.0005L29.9368 46.0005ZM34.6408 46.023L34.636 47.023C36.2931 47.0309 37.6034 47.3091 38.6109 47.8052L39.0526 46.9081L39.4944 46.0109C38.1394 45.3437 36.5085 45.0319 34.6456 45.023L34.6408 46.023ZM39.0526 46.9081L38.6399 47.8189C39.68 48.2902 40.4194 48.9576 40.9081 49.8159L41.7771 49.3211L42.6461 48.8263C41.929 47.5668 40.852 46.6255 39.4653 45.9972L39.0526 46.9081ZM41.7771 49.3211L40.9195 49.8353C41.44 50.7035 41.7252 51.8113 41.7186 53.2089L42.7185 53.2136L43.7185 53.2184C43.7265 51.544 43.3841 50.0568 42.6348 48.8069L41.7771 49.3211ZM42.7185 53.2136L41.7186 53.2089C41.7131 54.3501 41.4317 55.4137 40.8691 56.4152L41.7409 56.905L42.6127 57.3948C43.3411 56.0984 43.7115 54.7011 43.7185 53.2184L42.7185 53.2136ZM41.7409 56.905L40.8751 56.4047C40.318 57.3688 39.5406 58.1569 38.5225 58.7724L39.0399 59.6282L39.5573 60.4839C40.8499 59.7024 41.8731 58.6751 42.6068 57.4053L41.7409 56.905ZM39.0399 59.6282L38.5118 58.779C37.5694 59.3651 36.4458 59.6718 35.1037 59.6654L35.0989 60.6653L35.0941 61.6653C36.76 61.6733 38.2637 61.2885 39.568 60.4773L39.0399 59.6282ZM35.0989 60.6653L35.1037 59.6654L22.8638 59.6069L22.859 60.6069L22.8543 61.6069L35.0941 61.6653L35.0989 60.6653ZM52.4485 59.6442L51.9298 60.4993L51.9405 60.5055L52.4485 59.6442ZM47.9105 55.0144L47.0408 55.508L47.0443 55.5142L47.9105 55.0144ZM47.9726 42.0066L48.834 42.5146L48.8376 42.5084L47.9726 42.0066ZM52.5546 37.4204L53.0543 38.2867L53.065 38.2804L52.5546 37.4204ZM65.8024 37.4837L65.2838 38.3387L65.2922 38.3437L65.3006 38.3486L65.8024 37.4837ZM70.3406 42.0654L69.4682 42.5543L69.4744 42.5651L70.3406 42.0654ZM70.2783 55.1212L69.4133 54.6194L69.4106 54.6241L70.2783 55.1212ZM65.6963 59.7074L66.1961 60.5736L66.2005 60.571L65.6963 59.7074ZM63.5042 56.3849L62.9685 55.5405L63.5042 56.3849ZM66.4475 53.1829L67.3311 53.6512L67.3355 53.6426L66.4475 53.1829ZM66.4912 44.015L65.5988 44.4663L65.6032 44.4748L66.4912 44.015ZM54.747 40.6949L54.221 39.8443L54.2113 39.8505L54.747 40.6949ZM51.8034 43.9449L52.687 44.4132L52.6915 44.4046L51.8034 43.9449ZM51.7596 53.1128L50.8672 53.564L50.8716 53.5726L51.7596 53.1128ZM54.6723 56.3427L54.1285 57.1821L54.1382 57.1882L54.6723 56.3427ZM59.0644 61.3558L59.0691 60.3558C56.728 60.3446 54.7005 59.8113 52.9564 58.7828L52.4485 59.6442L51.9405 60.5055C54.0257 61.7353 56.4088 62.3431 59.0596 62.3558L59.0644 61.3558ZM52.4485 59.6442L52.967 58.7891C51.1954 57.7146 49.8027 56.2931 48.7767 54.5147L47.9105 55.0144L47.0443 55.5142C48.2399 57.5864 49.8726 59.2514 51.9299 60.4992L52.4485 59.6442ZM47.9105 55.0144L48.7802 54.5209C47.7615 52.7256 47.251 50.7206 47.2617 48.4833L46.2617 48.4785L45.2617 48.4737C45.2495 51.0363 45.8382 53.3886 47.0408 55.508L47.9105 55.0144ZM46.2617 48.4785L47.2617 48.4833C47.2724 46.2458 47.8019 44.2646 48.834 42.5146L47.9726 42.0066L47.1112 41.4986C45.885 43.5778 45.2739 45.9113 45.2617 48.4737L46.2617 48.4785ZM47.9726 42.0066L48.8376 42.5084C49.8803 40.7111 51.2825 39.3089 53.0543 38.2866L52.5546 37.4204L52.0548 36.5542C49.976 37.7536 48.3236 39.4088 47.1076 41.5048L47.9726 42.0066ZM52.5546 37.4204L53.065 38.2804C54.8172 37.2404 56.8459 36.7129 59.182 36.724L59.1867 35.7241L59.1915 34.7241C56.5356 34.7114 54.1429 35.3148 52.0442 36.5605L52.5546 37.4204ZM59.1867 35.7241L59.182 36.724C61.518 36.7352 63.5416 37.282 65.2838 38.3387L65.8024 37.4837L66.321 36.6286C64.2343 35.363 61.8474 34.7367 59.1915 34.7241L59.1867 35.7241ZM65.8024 37.4837L65.3006 38.3486C67.0955 39.3899 68.4788 40.7886 69.4682 42.5542L70.3406 42.0654L71.213 41.5765C70.0447 39.4918 68.4026 37.836 66.3042 36.6187L65.8024 37.4837ZM70.3406 42.0654L69.4744 42.5651C70.4886 44.3229 71.0003 46.3245 70.9894 48.5965L71.9894 48.6013L72.9894 48.6061C73.0018 46.0142 72.4143 43.6585 71.2068 41.5656L70.3406 42.0654ZM71.9894 48.6013L70.9894 48.5965C70.9787 50.8339 70.4491 52.8339 69.4133 54.6194L70.2783 55.1212L71.1432 55.623C72.366 53.5153 72.9772 51.1687 72.9894 48.6061L71.9894 48.6013ZM70.2783 55.1212L69.4106 54.6241C68.4029 56.3827 67.0028 57.7869 65.1922 58.8438L65.6963 59.7074L66.2005 60.571C68.3048 59.3426 69.9593 57.6893 71.1459 55.6184L70.2783 55.1212ZM65.6963 59.7074L65.1966 58.8412C63.4428 59.8531 61.4103 60.367 59.0691 60.3558L59.0644 61.3558L59.0596 62.3558C61.7104 62.3684 64.0992 61.7834 66.1961 60.5736L65.6963 59.7074ZM59.0825 57.5638L59.0777 58.5638C60.9367 58.5727 62.6041 58.14 64.0398 57.2293L63.5042 56.3849L62.9685 55.5405C61.9006 56.2179 60.6202 56.5711 59.0872 56.5638L59.0825 57.5638ZM63.5042 56.3849L64.0398 57.2293C65.4419 56.34 66.5413 55.1415 67.3311 53.6511L66.4475 53.1829L65.5639 52.7147C64.9328 53.9056 64.0701 54.8417 62.9685 55.5405L63.5042 56.3849ZM66.4475 53.1829L67.3355 53.6426C68.1258 52.1161 68.5167 50.4235 68.5254 48.5848L67.5255 48.58L66.5255 48.5752C66.5181 50.1285 66.1903 51.5045 65.5594 52.7232L66.4475 53.1829ZM67.5255 48.58L68.5254 48.5848C68.5342 46.7465 68.1596 45.0623 67.3793 43.5552L66.4912 44.015L65.6032 44.4748C66.2181 45.6624 66.5329 47.0216 66.5255 48.5752L67.5255 48.58ZM66.4912 44.015L67.3836 43.5638C66.6099 42.0335 65.5217 40.8041 64.1225 39.8978L63.5789 40.7371L63.0352 41.5764C64.1243 42.2819 64.9777 43.2378 65.5988 44.4662L66.4912 44.015ZM63.5789 40.7371L64.1225 39.8978C62.6956 38.9735 61.0324 38.5249 59.1734 38.516L59.1686 39.516L59.1639 40.516C60.6968 40.5233 61.9738 40.8888 63.0352 41.5764L63.5789 40.7371ZM59.1686 39.516L59.1734 38.516C57.3419 38.5073 55.6803 38.942 54.221 39.8444L54.747 40.6949L55.2729 41.5454C56.3812 40.8601 57.6674 40.5089 59.1639 40.516L59.1686 39.516ZM54.747 40.6949L54.2113 39.8505C52.8035 40.7434 51.7036 41.9624 50.9153 43.4852L51.8034 43.9449L52.6915 44.4046C53.3243 43.1822 54.1867 42.2345 55.2826 41.5394L54.747 40.6949ZM51.8034 43.9449L50.9198 43.4767C50.1252 44.9763 49.7344 46.6568 49.7257 48.495L50.7256 48.4998L51.7256 48.5046C51.7331 46.9509 52.0608 45.5948 52.687 44.4131L51.8034 43.9449ZM50.7256 48.4998L49.7257 48.495C49.7169 50.3337 50.0916 52.03 50.8672 53.564L51.7596 53.1128L52.652 52.6616C52.0328 51.4369 51.7182 50.0579 51.7256 48.5046L50.7256 48.4998ZM51.7596 53.1128L50.8716 53.5726C51.6471 55.0704 52.7351 56.2793 54.1286 57.182L54.6723 56.3427L55.2159 55.5034C54.1211 54.7942 53.2673 53.8499 52.6477 52.653L51.7596 53.1128ZM54.6723 56.3427L54.1382 57.1882C55.5888 58.1045 57.2461 58.5551 59.0777 58.5638L59.0825 57.5638L59.0872 56.5638C57.5908 56.5567 56.308 56.1932 55.2063 55.4973L54.6723 56.3427ZM76.6338 60.8636L75.6338 60.8589L75.629 61.8588L76.629 61.8636L76.6338 60.8636ZM78.0249 40.95L77.1514 40.4633L78.0249 40.95ZM81.7867 37.224L81.2966 36.3523L81.7867 37.224ZM91.055 36.3562L90.7756 37.3164L90.7884 37.3201L90.8013 37.3235L91.055 36.3562ZM94.1676 37.9071L93.5554 38.6978L93.5638 38.7043L93.5724 38.7106L94.1676 37.9071ZM96.4578 40.798L95.552 41.2218L95.8202 41.795L96.453 41.798L96.4578 40.798ZM96.5058 40.7983L96.501 41.7983L97.1048 41.8011L97.3885 41.2682L96.5058 40.7983ZM98.9195 37.9298L99.507 38.739L99.5157 38.7327L99.5242 38.7263L98.9195 37.9298ZM102.047 36.4087L102.291 37.3783L102.304 37.3751L102.317 37.3715L102.047 36.4087ZM111.306 37.3649L111.805 36.498L111.306 37.3649ZM116.233 61.0527L116.229 62.0527L117.229 62.0574L117.233 61.0575L116.233 61.0527ZM111.817 61.0316L110.817 61.0268L110.813 62.0268L111.813 62.0316L111.817 61.0316ZM108.699 40.6165L108.18 41.4715L108.186 41.4752L108.193 41.4789L108.699 40.6165ZM102.027 40.6326L102.513 41.5065L102.523 41.5008L102.533 41.4949L102.027 40.6326ZM99.5675 42.9729L98.7173 42.4463L98.7124 42.4543L99.5675 42.9729ZM98.6175 60.9686L98.6128 61.9686L99.6128 61.9733L99.6175 60.9734L98.6175 60.9686ZM94.2016 60.9475L93.2016 60.9427L93.1968 61.9427L94.1968 61.9475L94.2016 60.9475ZM93.3755 42.9434L92.5084 43.4414L92.5179 43.458L92.5282 43.4744L93.3755 42.9434ZM90.9868 40.5799L90.4602 41.43L90.4761 41.4399L90.4924 41.4491L90.9868 40.5799ZM84.3151 40.5001L83.8171 39.6329L83.8109 39.6365L83.8047 39.6401L84.3151 40.5001ZM81.9999 42.841L82.8623 43.3473L82.8623 43.3473L81.9999 42.841ZM81.0497 60.8847L81.045 61.8847L82.045 61.8895L82.0497 60.8895L81.0497 60.8847ZM76.6338 60.8636L77.6338 60.8684L77.7041 46.1326L76.7041 46.1278L75.7042 46.123L75.6338 60.8589L76.6338 60.8636ZM76.7041 46.1278L77.7041 46.1326C77.7124 44.4038 78.1136 42.8452 78.8984 41.4368L78.0249 40.95L77.1514 40.4633C76.1932 42.1827 75.7139 44.0758 75.7042 46.123L76.7041 46.1278ZM78.0249 40.95L78.8984 41.4368C79.6756 40.0422 80.7931 38.93 82.2769 38.0956L81.7867 37.224L81.2966 36.3523C79.5075 37.3584 78.1171 38.7302 77.1514 40.4633L78.0249 40.95ZM81.7867 37.224L82.2769 38.0956C83.7314 37.2777 85.5228 36.8498 87.6925 36.8602L87.6973 35.8602L87.7021 34.8602C85.2639 34.8485 83.1148 35.3299 81.2966 36.3523L81.7867 37.224ZM87.6973 35.8602L87.6925 36.8602C88.7159 36.865 89.7428 37.016 90.7756 37.3164L91.055 36.3562L91.3343 35.396C90.1302 35.0457 88.9186 34.866 87.7021 34.8602L87.6973 35.8602ZM91.055 36.3562L90.8013 37.3235C91.7837 37.5811 92.7003 38.0357 93.5554 38.6978L94.1676 37.9071L94.7798 37.1164C93.7219 36.2973 92.5634 35.718 91.3086 35.3889L91.055 36.3562ZM94.1676 37.9071L93.5724 38.7106C94.379 39.3081 95.0429 40.1336 95.552 41.2218L96.4578 40.798L97.3636 40.3743C96.7323 39.025 95.8694 37.9232 94.7628 37.1035L94.1676 37.9071ZM96.4578 40.798L96.453 41.798L96.501 41.7983L96.5058 40.7983L96.5106 39.7983L96.4626 39.7981L96.4578 40.798ZM96.5058 40.7983L97.3885 41.2682C97.9739 40.1687 98.6842 39.3364 99.507 38.739L98.9195 37.9298L98.332 37.1205C97.2282 37.922 96.3293 39.002 95.6231 40.3283L96.5058 40.7983ZM98.9195 37.9298L99.5242 38.7263C100.386 38.0724 101.306 37.6266 102.291 37.3783L102.047 36.4087L101.802 35.439C100.545 35.7561 99.3806 36.3243 98.3149 37.1333L98.9195 37.9298ZM102.047 36.4087L102.317 37.3715C103.35 37.0817 104.394 36.9399 105.452 36.9449L105.457 35.9449L105.462 34.945C104.216 34.939 102.987 35.1064 101.777 35.4458L102.047 36.4087ZM105.457 35.9449L105.452 36.9449C107.587 36.9551 109.359 37.3989 110.808 38.2318L111.306 37.3649L111.805 36.498C109.998 35.4593 107.871 34.9565 105.462 34.945L105.457 35.9449ZM111.306 37.3649L110.808 38.2318C112.284 39.0803 113.39 40.2031 114.154 41.6051L115.032 41.1267L115.911 40.6483C114.961 38.9061 113.584 37.521 111.805 36.498L111.306 37.3649ZM115.032 41.1267L114.154 41.6051C114.926 43.0209 115.312 44.5833 115.304 46.3121L116.304 46.3168L117.304 46.3216C117.313 44.2744 116.852 42.3768 115.911 40.6483L115.032 41.1267ZM116.304 46.3168L115.304 46.3121L115.233 61.0479L116.233 61.0527L117.233 61.0575L117.304 46.3216L116.304 46.3168ZM116.233 61.0527L116.238 60.0527L111.822 60.0316L111.817 61.0316L111.813 62.0316L116.229 62.0527L116.233 61.0527ZM111.817 61.0316L112.817 61.0364L112.888 46.3005L111.888 46.2958L110.888 46.291L110.817 61.0268L111.817 61.0316ZM111.888 46.2958L112.888 46.3005C112.894 44.9192 112.571 43.6386 111.907 42.4817L111.04 42.9797L110.172 43.4777C110.65 44.3102 110.893 45.2404 110.888 46.291L111.888 46.2958ZM111.04 42.9797L111.907 42.4817C111.249 41.3362 110.344 40.4228 109.205 39.7541L108.699 40.6165L108.193 41.4789C109.032 41.9716 109.688 42.6337 110.172 43.4777L111.04 42.9797ZM108.699 40.6165L109.217 39.7614C108.088 39.0764 106.804 38.7434 105.396 38.7367L105.391 39.7367L105.386 40.7367C106.474 40.7419 107.395 40.9954 108.18 41.4715L108.699 40.6165ZM105.391 39.7367L105.396 38.7367C104.004 38.73 102.705 39.0742 101.52 39.7703L102.027 40.6326L102.533 41.4949C103.402 40.9848 104.346 40.7317 105.386 40.7367L105.391 39.7367ZM102.027 40.6326L101.541 39.7587C100.366 40.4118 99.4208 41.3108 98.7174 42.4463L99.5675 42.9729L100.418 43.4995C100.94 42.6568 101.633 41.9956 102.513 41.5065L102.027 40.6326ZM99.5675 42.9729L98.7124 42.4543C98.0298 43.5798 97.6945 44.8469 97.6879 46.228L98.6879 46.2327L99.6879 46.2375C99.6929 45.1866 99.9439 44.2805 100.422 43.4915L99.5675 42.9729ZM98.6879 46.2327L97.6879 46.228L97.6176 60.9638L98.6175 60.9686L99.6175 60.9734L99.6879 46.2375L98.6879 46.2327ZM98.6175 60.9686L98.6223 59.9686L94.2064 59.9475L94.2016 60.9475L94.1968 61.9475L98.6128 61.9686L98.6175 60.9686ZM94.2016 60.9475L95.2016 60.9523L95.2719 46.2164L94.2719 46.2117L93.272 46.2069L93.2016 60.9427L94.2016 60.9475ZM94.2719 46.2117L95.2719 46.2164C95.2786 44.8249 94.934 43.5471 94.2229 42.4123L93.3755 42.9434L92.5282 43.4744C93.0239 44.2654 93.2769 45.1665 93.272 46.2069L94.2719 46.2117ZM93.3755 42.9434L94.2427 42.4453C93.5803 41.2919 92.6537 40.3776 91.4812 39.7107L90.9868 40.5799L90.4924 41.4491C91.3624 41.944 92.0282 42.6053 92.5084 43.4414L93.3755 42.9434ZM90.9868 40.5799L91.5134 39.7298C90.3561 39.0129 89.0544 38.6587 87.636 38.6519L87.6312 39.6519L87.6264 40.6519C88.7039 40.657 89.6393 40.9215 90.4602 41.43L90.9868 40.5799ZM87.6312 39.6519L87.636 38.6519C86.2546 38.6453 84.974 38.9685 83.8171 39.6329L84.3151 40.5001L84.8131 41.3672C85.6456 40.8891 86.5758 40.6469 87.6264 40.6519L87.6312 39.6519ZM84.3151 40.5001L83.8047 39.6401C82.6929 40.3 81.8016 41.2035 81.1375 42.3348L81.9999 42.841L82.8623 43.3473C83.3596 42.5001 84.0118 41.843 84.8255 41.36L84.3151 40.5001ZM81.9999 42.841L81.1375 42.3348C80.4621 43.4853 80.1267 44.7627 80.1201 46.1441L81.1201 46.1489L82.1201 46.1537C82.1251 45.103 82.3762 44.1752 82.8623 43.3473L81.9999 42.841ZM81.1201 46.1489L80.1201 46.1441L80.0498 60.8799L81.0497 60.8847L82.0497 60.8895L82.1201 46.1537L81.1201 46.1489ZM81.0497 60.8847L81.0545 59.8847L76.6386 59.8636L76.6338 60.8636L76.629 61.8636L81.045 61.8847L81.0497 60.8847ZM127.168 60.0009L126.65 60.856L126.66 60.8622L127.168 60.0009ZM122.63 55.3712L121.761 55.8647L121.764 55.8709L122.63 55.3712ZM122.692 42.3633L123.554 42.8713L123.557 42.8651L122.692 42.3633ZM127.274 37.7771L127.774 38.6434L127.785 38.6371L127.274 37.7771ZM140.522 37.8404L140.004 38.6954L140.012 38.7004L140.02 38.7053L140.522 37.8404ZM145.06 42.4221L144.188 42.911L144.194 42.9218L145.06 42.4221ZM144.998 55.4779L144.133 54.9761L144.13 54.9808L144.998 55.4779ZM140.416 60.0641L140.916 60.9303L140.92 60.9277L140.416 60.0641ZM138.224 56.7416L137.688 55.8972L138.224 56.7416ZM141.167 53.5396L142.051 54.0079L142.055 53.9993L141.167 53.5396ZM141.211 44.3717L140.319 44.823L140.323 44.8315L141.211 44.3717ZM129.467 41.0516L128.941 40.201L128.931 40.2072L129.467 41.0516ZM126.523 44.3016L127.407 44.7699L127.411 44.7613L126.523 44.3016ZM126.479 53.4695L125.587 53.9207L125.591 53.9293L126.479 53.4695ZM129.392 56.6994L128.848 57.5388L128.858 57.5449L129.392 56.6994ZM133.784 61.7125L133.789 60.7125C131.448 60.7013 129.42 60.1681 127.676 59.1395L127.168 60.0009L126.66 60.8622C128.745 62.092 131.129 62.6998 133.779 62.7125L133.784 61.7125ZM127.168 60.0009L127.687 59.1458C125.915 58.0713 124.523 56.6498 123.496 54.8714L122.63 55.3712L121.764 55.8709C122.96 57.9431 124.592 59.6081 126.65 60.8559L127.168 60.0009ZM122.63 55.3712L123.5 54.8776C122.481 53.0823 121.971 51.0773 121.981 48.84L120.981 48.8352L119.981 48.8304C119.969 51.393 120.558 53.7454 121.761 55.8647L122.63 55.3712ZM120.981 48.8352L121.981 48.84C121.992 46.6025 122.522 44.6213 123.554 42.8713L122.692 42.3633L121.831 41.8553C120.605 43.9345 119.994 46.268 119.981 48.8304L120.981 48.8352ZM122.692 42.3633L123.557 42.8651C124.6 41.0678 126.002 39.6656 127.774 38.6433L127.274 37.7771L126.775 36.9109C124.696 38.1103 123.043 39.7655 121.827 41.8615L122.692 42.3633ZM127.274 37.7771L127.785 38.6371C129.537 37.5971 131.566 37.0696 133.902 37.0808L133.907 36.0808L133.911 35.0808C131.255 35.0681 128.863 35.6715 126.764 36.9172L127.274 37.7771ZM133.907 36.0808L133.902 37.0808C136.238 37.0919 138.261 37.6387 140.004 38.6954L140.522 37.8404L141.041 36.9853C138.954 35.7197 136.567 35.0935 133.911 35.0808L133.907 36.0808ZM140.522 37.8404L140.02 38.7053C141.815 39.7466 143.199 41.1453 144.188 42.9109L145.06 42.4221L145.933 41.9332C144.765 39.8485 143.122 38.1927 141.024 36.9754L140.522 37.8404ZM145.06 42.4221L144.194 42.9218C145.208 44.6796 145.72 46.6812 145.709 48.9533L146.709 48.958L147.709 48.9628C147.722 46.3709 147.134 44.0152 145.927 41.9223L145.06 42.4221ZM146.709 48.958L145.709 48.9533C145.699 51.1906 145.169 53.1906 144.133 54.9761L144.998 55.4779L145.863 55.9797C147.086 53.872 147.697 51.5254 147.709 48.9628L146.709 48.958ZM144.998 55.4779L144.13 54.9808C143.123 56.7395 141.723 58.1436 139.912 59.2005L140.416 60.0641L140.92 60.9277C143.025 59.6993 144.679 58.046 145.866 55.9751L144.998 55.4779ZM140.416 60.0641L139.916 59.1979C138.163 60.2098 136.13 60.7237 133.789 60.7125L133.784 61.7125L133.779 62.7125C136.43 62.7251 138.819 62.1401 140.916 60.9303L140.416 60.0641ZM133.802 57.9205L133.797 58.9205C135.656 58.9294 137.324 58.4967 138.76 57.5861L138.224 56.7416L137.688 55.8972C136.62 56.5746 135.34 56.9278 133.807 56.9205L133.802 57.9205ZM138.224 56.7416L138.76 57.5861C140.162 56.6967 141.261 55.4982 142.051 54.0079L141.167 53.5396L140.284 53.0714C139.653 54.2623 138.79 55.1984 137.688 55.8972L138.224 56.7416ZM141.167 53.5396L142.055 53.9993C142.846 52.4728 143.236 50.7802 143.245 48.9415L142.245 48.9367L141.245 48.9319C141.238 50.4852 140.91 51.8612 140.279 53.0799L141.167 53.5396ZM142.245 48.9367L143.245 48.9415C143.254 47.1032 142.879 45.4191 142.099 43.912L141.211 44.3717L140.323 44.8315C140.938 46.0191 141.253 47.3783 141.245 48.9319L142.245 48.9367ZM141.211 44.3717L142.103 43.9205C141.33 42.3903 140.241 41.1609 138.842 40.2545L138.299 41.0938L137.755 41.9331C138.844 42.6386 139.697 43.5945 140.319 44.8229L141.211 44.3717ZM138.299 41.0938L138.842 40.2545C137.415 39.3302 135.752 38.8816 133.893 38.8727L133.888 39.8727L133.884 40.8727C135.417 40.88 136.694 41.2455 137.755 41.9331L138.299 41.0938ZM133.888 39.8727L133.893 38.8727C132.062 38.864 130.4 39.2987 128.941 40.2011L129.467 41.0516L129.993 41.9021C131.101 41.2168 132.387 40.8656 133.884 40.8727L133.888 39.8727ZM129.467 41.0516L128.931 40.2072C127.523 41.1001 126.423 42.3191 125.635 43.8419L126.523 44.3016L127.411 44.7613C128.044 43.5389 128.907 42.5912 130.002 41.8961L129.467 41.0516ZM126.523 44.3016L125.64 43.8334C124.845 45.333 124.454 47.0135 124.445 48.8517L125.445 48.8565L126.445 48.8613C126.453 47.3076 126.781 45.9515 127.407 44.7698L126.523 44.3016ZM125.445 48.8565L124.445 48.8517C124.437 50.6904 124.811 52.3867 125.587 53.9207L126.479 53.4695L127.372 53.0183C126.753 51.7936 126.438 50.4146 126.445 48.8613L125.445 48.8565ZM126.479 53.4695L125.591 53.9293C126.367 55.4271 127.455 56.636 128.848 57.5387L129.392 56.6994L129.936 55.8601C128.841 55.1509 127.987 54.2066 127.367 53.0097L126.479 53.4695ZM129.392 56.6994L128.858 57.5449C130.309 58.4612 131.966 58.9118 133.797 58.9205L133.802 57.9205L133.807 56.9205C132.311 56.9134 131.028 56.5499 129.926 55.854L129.392 56.6994ZM151.018 61.2187L150.018 61.214L150.013 62.2139L151.013 62.2187L151.018 61.2187ZM151.036 57.4268L151.04 56.4268L150.04 56.422L150.036 57.422L151.036 57.4268ZM164.718 57.0121L165.221 57.8764L165.228 57.8722L165.235 57.8679L164.718 57.0121ZM166.02 55.6743L165.139 55.2022L166.02 55.6743ZM166.084 52.3626L165.187 52.8055L165.193 52.8173L165.199 52.8289L166.084 52.3626ZM164.89 51.1568L164.356 52.0023L164.386 52.0215L164.418 52.0384L164.89 51.1568ZM153.952 49.8566L153.521 50.7588L153.535 50.7659L153.551 50.7726L153.952 49.8566ZM151.227 47.4916L150.377 48.0175L150.382 48.0269L150.388 48.0362L151.227 47.4916ZM153.77 37.7596L154.272 38.6239L154.282 38.6185L154.291 38.6129L153.77 37.7596ZM168.798 36.8233L169.798 36.8281L169.803 35.8281L168.803 35.8233L168.798 36.8233ZM168.78 40.6153L168.775 41.6153L169.775 41.6201L169.78 40.6201L168.78 40.6153ZM155.576 41.4643L154.853 40.7731L155.576 41.4643ZM155.556 45.7362L154.826 46.4205L154.845 46.4402L154.864 46.4589L155.556 45.7362ZM167.211 47.5199L166.769 48.417L166.784 48.4241L166.798 48.4307L167.211 47.5199ZM169.936 49.9329L169.067 50.4277L169.072 50.4375L169.078 50.4471L169.936 49.9329ZM169.899 57.5168L170.765 58.0171L170.771 58.0066L169.899 57.5168ZM167.198 60.24L166.681 59.3841L166.67 59.3908L167.198 60.24ZM151.018 61.2187L152.018 61.2235L152.036 57.4316L151.036 57.4268L150.036 57.422L150.018 61.214L151.018 61.2187ZM151.036 57.4268L151.031 58.4268L162.743 58.4827L162.748 57.4827L162.752 56.4827L151.04 56.4268L151.036 57.4268ZM162.748 57.4827L162.743 58.4827C163.65 58.487 164.491 58.3011 165.221 57.8764L164.718 57.0121L164.215 56.1477C163.854 56.3579 163.381 56.4857 162.752 56.4827L162.748 57.4827ZM164.718 57.0121L165.235 57.8679C165.951 57.435 166.518 56.8623 166.902 56.1464L166.02 55.6743L165.139 55.2022C164.941 55.5715 164.64 55.8907 164.2 56.1563L164.718 57.0121ZM166.02 55.6743L166.902 56.1464C167.268 55.4618 167.457 54.7263 167.46 53.9531L166.46 53.9484L165.46 53.9436C165.458 54.3864 165.353 54.8015 165.139 55.2022L166.02 55.6743ZM166.46 53.9484L167.46 53.9531C167.464 53.223 167.303 52.5312 166.969 51.8962L166.084 52.3626L165.199 52.8289C165.372 53.1564 165.462 53.5218 165.46 53.9436L166.46 53.9484ZM166.084 52.3626L166.981 51.9196C166.628 51.2052 166.074 50.6565 165.362 50.2753L164.89 51.1568L164.418 52.0384C164.791 52.2384 165.033 52.4935 165.187 52.8055L166.084 52.3626ZM164.89 51.1568L165.424 50.3114C164.723 49.8689 163.907 49.6721 163.025 49.6679L163.02 50.6679L163.015 51.6679C163.605 51.6707 164.035 51.7999 164.356 52.0023L164.89 51.1568ZM163.02 50.6679L163.025 49.6679L158.081 49.6443L158.076 50.6443L158.071 51.6443L163.015 51.6679L163.02 50.6679ZM158.076 50.6443L158.081 49.6443C156.621 49.6373 155.386 49.3931 154.353 48.9407L153.952 49.8566L153.551 50.7726C154.881 51.3555 156.396 51.6363 158.071 51.6443L158.076 50.6443ZM153.952 49.8566L154.383 48.9544C153.393 48.481 152.628 47.8133 152.066 46.9469L151.227 47.4916L150.388 48.0362C151.16 49.2242 152.212 50.1333 153.521 50.7588L153.952 49.8566ZM151.227 47.4916L152.078 46.9656C151.561 46.1297 151.279 45.0736 151.285 43.7478L150.285 43.743L149.285 43.7383C149.277 45.3565 149.623 46.7993 150.377 48.0175L151.227 47.4916ZM150.285 43.743L151.285 43.7478C151.29 42.6705 151.555 41.6925 152.078 40.7945L151.213 40.2914L150.349 39.7883C149.646 40.9966 149.292 42.3196 149.285 43.7383L150.285 43.743ZM151.213 40.2914L152.078 40.7945C152.6 39.8966 153.326 39.1749 154.272 38.6239L153.77 37.7596L153.267 36.8953C152.032 37.6139 151.053 38.5801 150.349 39.7883L151.213 40.2914ZM153.77 37.7596L154.291 38.6129C155.208 38.0525 156.272 37.7635 157.514 37.7695L157.518 36.7695L157.523 35.7695C155.949 35.762 154.514 36.1331 153.248 36.9063L153.77 37.7596ZM157.518 36.7695L157.514 37.7695L168.793 37.8233L168.798 36.8233L168.803 35.8233L157.523 35.7695L157.518 36.7695ZM168.798 36.8233L167.798 36.8186L167.78 40.6105L168.78 40.6153L169.78 40.6201L169.798 36.8281L168.798 36.8233ZM168.78 40.6153L168.785 39.6153L157.937 39.5635L157.932 40.5635L157.927 41.5635L168.775 41.6153L168.78 40.6153ZM157.932 40.5635L157.937 39.5635C156.725 39.5577 155.657 39.9329 154.853 40.7731L155.576 41.4643L156.299 42.1555C156.653 41.7851 157.155 41.5598 157.927 41.5635L157.932 40.5635ZM155.576 41.4643L154.853 40.7731C154.099 41.5618 153.707 42.5256 153.702 43.6153L154.702 43.6201L155.702 43.6249C155.704 43.0507 155.895 42.5772 156.299 42.1555L155.576 41.4643ZM154.702 43.6201L153.702 43.6153C153.697 44.6842 154.087 45.6328 154.826 46.4205L155.556 45.7362L156.285 45.0519C155.878 44.6181 155.699 44.1561 155.702 43.6249L154.702 43.6201ZM155.556 45.7362L154.864 46.4589C155.705 47.2626 156.826 47.6063 158.091 47.6123L158.095 46.6124L158.1 45.6124C157.189 45.608 156.617 45.3676 156.247 45.0136L155.556 45.7362ZM158.095 46.6124L158.091 47.6123L162.795 47.6348L162.799 46.6348L162.804 45.6348L158.1 45.6124L158.095 46.6124ZM162.799 46.6348L162.795 47.6348C164.452 47.6427 165.762 47.9209 166.769 48.417L167.211 47.5199L167.653 46.6227C166.298 45.9555 164.667 45.6437 162.804 45.6348L162.799 46.6348ZM167.211 47.5199L166.798 48.4307C167.839 48.902 168.578 49.5694 169.067 50.4277L169.936 49.9329L170.805 49.4381C170.088 48.1786 169.011 47.2373 167.624 46.609L167.211 47.5199ZM169.936 49.9329L169.078 50.4471C169.599 51.3154 169.884 52.4231 169.877 53.8207L170.877 53.8255L171.877 53.8302C171.885 52.1558 171.543 50.6686 170.793 49.4187L169.936 49.9329ZM170.877 53.8255L169.877 53.8207C169.872 54.9619 169.59 56.0256 169.028 57.027L169.899 57.5168L170.771 58.0066C171.5 56.7102 171.87 55.3129 171.877 53.8302L170.877 53.8255ZM169.899 57.5168L169.034 57.0166C168.477 57.9806 167.699 58.7687 166.681 59.3842L167.198 60.24L167.716 61.0957C169.008 60.3142 170.032 59.2869 170.765 58.0171L169.899 57.5168ZM167.198 60.24L166.67 59.3908C165.728 59.9769 164.604 60.2836 163.262 60.2772L163.257 61.2772L163.253 62.2772C164.918 62.2851 166.422 61.9003 167.727 61.0891L167.198 60.24ZM163.257 61.2772L163.262 60.2772L151.022 60.2187L151.018 61.2187L151.013 62.2187L163.253 62.2772L163.257 61.2772ZM23.1672 96.6088L22.1672 96.604L22.1624 97.604L23.1624 97.6088L23.1672 96.6088ZM23.3276 63.0092L23.3323 62.0092L22.3324 62.0044L22.3276 63.0044L23.3276 63.0092ZM46.0258 64.2696L45.5072 65.1246L45.5152 65.1294L45.5232 65.1341L46.0258 64.2696ZM49.3829 74.9417L48.4745 74.5236L48.4715 74.53L48.4687 74.5365L49.3829 74.9417ZM47.4501 77.6205L48.1249 78.3585L47.4501 77.6205ZM44.4659 79.3343L44.1542 78.3841L40.8559 79.466L44.2243 80.3047L44.4659 79.3343ZM47.8656 81.0785L48.5241 80.326L47.8656 81.0785ZM50.1074 84.0653L49.2011 84.4879L49.2058 84.4981L49.2108 84.5082L50.1074 84.0653ZM49.7799 92.3198L50.6458 92.8201L49.7799 92.3198ZM46.5486 95.5204L46.0501 94.6535L46.0413 94.6587L46.5486 95.5204ZM27.7946 92.5508L26.7946 92.5461L26.7898 93.5461L27.7898 93.5508L27.7946 92.5508ZM43.6861 91.8587L44.2061 92.7128L44.2178 92.7057L44.2293 92.6983L43.6861 91.8587ZM45.6159 89.8039L44.744 89.314L44.7377 89.3256L45.6159 89.8039ZM45.6418 84.38L44.7732 84.8755L44.7775 84.883L44.7819 84.8903L45.6418 84.38ZM43.6354 82.3543L43.0986 83.198L43.11 83.2053L43.1215 83.2122L43.6354 82.3543ZM27.8475 81.463L27.8523 80.463L26.8523 80.4582L26.8475 81.4582L27.8475 81.463ZM27.8661 77.575L26.8661 77.5702L26.8613 78.5702L27.8613 78.575L27.8661 77.575ZM42.8454 76.9265L43.341 77.7951L43.351 77.7892L42.8454 76.9265ZM44.8227 74.9679L43.9589 74.464L43.9526 74.4752L44.8227 74.9679ZM44.8952 69.8322L44.0204 70.3167L44.0247 70.3243L44.0291 70.332L44.8952 69.8322ZM27.916 67.1111L27.9208 66.1111L26.9208 66.1064L26.916 67.1064L27.916 67.1111ZM23.1672 96.6088L24.1672 96.6136L24.3276 63.014L23.3276 63.0092L22.3276 63.0044L22.1672 96.604L23.1672 96.6088ZM23.3276 63.0092L23.3228 64.0092L41.5626 64.0962L41.5674 63.0963L41.5721 62.0963L23.3323 62.0092L23.3276 63.0092ZM41.5674 63.0963L41.5626 64.0962C43.1025 64.1036 44.4061 64.4567 45.5072 65.1246L46.0258 64.2696L46.5444 63.4145C45.0929 62.5342 43.4242 62.1051 41.5721 62.0963L41.5674 63.0963ZM46.0258 64.2696L45.5232 65.1341C46.6469 65.7873 47.5235 66.6724 48.1661 67.8023L49.0353 67.308L49.9046 66.8136C49.0874 65.3765 47.9577 64.236 46.5284 63.405L46.0258 64.2696ZM49.0353 67.308L48.1661 67.8023C48.8006 68.9181 49.1255 70.2005 49.1185 71.6764L50.1185 71.6812L51.1185 71.6859C51.127 69.8979 50.7299 68.2648 49.9046 66.8136L49.0353 67.308ZM50.1185 71.6812L49.1185 71.6764C49.1138 72.6485 48.9021 73.5948 48.4745 74.5236L49.3829 74.9417L50.2913 75.3598C50.8338 74.1812 51.1124 72.9538 51.1185 71.6859L50.1185 71.6812ZM49.3829 74.9417L48.4687 74.5365C48.0725 75.4304 47.5104 76.2104 46.7753 76.8825L47.4501 77.6205L48.1249 78.3585C49.0611 77.5025 49.7875 76.4967 50.2971 75.3469L49.3829 74.9417ZM47.4501 77.6205L46.7753 76.8825C46.0517 77.544 45.1832 78.0465 44.1542 78.3841L44.4659 79.3343L44.7776 80.2845C46.0562 79.865 47.1771 79.225 48.1249 78.3585L47.4501 77.6205ZM44.4659 79.3343L44.2243 80.3047C45.3904 80.595 46.3782 81.1058 47.2071 81.8311L47.8656 81.0785L48.5241 80.326C47.4409 79.3781 46.1623 78.7261 44.7075 78.3639L44.4659 79.3343ZM47.8656 81.0785L47.2071 81.8311C48.0582 82.5758 48.7212 83.459 49.2011 84.4879L50.1074 84.0653L51.0136 83.6426C50.4166 82.3624 49.5851 81.2544 48.5241 80.326L47.8656 81.0785ZM50.1074 84.0653L49.2108 84.5082C49.7095 85.5176 49.9592 86.6129 49.9535 87.8086L50.9535 87.8133L51.9535 87.8181C51.9606 86.3258 51.6462 84.9224 51.0039 83.6223L50.1074 84.0653ZM50.9535 87.8133L49.9535 87.8086C49.9463 89.312 49.5949 90.6411 48.9141 91.8195L49.7799 92.3198L50.6458 92.8201C51.5138 91.3178 51.9447 89.6427 51.9535 87.8181L50.9535 87.8133ZM49.7799 92.3198L48.9141 91.8195C48.2303 93.003 47.2819 93.9452 46.0501 94.6535L46.5486 95.5204L47.0471 96.3873C48.575 95.5087 49.7808 94.3172 50.6458 92.8201L49.7799 92.3198ZM46.5486 95.5204L46.0413 94.6587C44.8779 95.3436 43.445 95.7056 41.6997 95.6973L41.695 96.6972L41.6902 97.6972C43.7209 97.7069 45.5237 97.2843 47.056 96.3821L46.5486 95.5204ZM41.695 96.6972L41.6997 95.6973L23.1719 95.6088L23.1672 96.6088L23.1624 97.6088L41.6902 97.6972L41.695 96.6972ZM27.7946 92.5508L27.7898 93.5508L40.6537 93.6122L40.6584 92.6123L40.6632 91.6123L27.7994 91.5509L27.7946 92.5508ZM40.6584 92.6123L40.6537 93.6122C41.9833 93.6186 43.183 93.3357 44.2061 92.7128L43.6861 91.8587L43.166 91.0045C42.5202 91.3977 41.7015 91.6172 40.6632 91.6123L40.6584 92.6123ZM43.6861 91.8587L44.2293 92.6983C45.1964 92.0725 45.9582 91.2662 46.4941 90.2822L45.6159 89.8039L44.7377 89.3256C44.3697 90.0013 43.8449 90.5648 43.1428 91.0191L43.6861 91.8587ZM45.6159 89.8039L46.4877 90.2937C47.0525 89.2884 47.3435 88.2112 47.3489 87.0761L46.349 87.0714L45.349 87.0666C45.3452 87.8515 45.1475 88.596 44.7441 89.3141L45.6159 89.8039ZM46.349 87.0714L47.3489 87.0761C47.3545 85.9148 47.0763 84.8376 46.5017 83.8696L45.6418 84.38L44.7819 84.8903C45.1596 85.5268 45.3529 86.2439 45.349 87.0666L46.349 87.0714ZM45.6418 84.38L46.5104 83.8844C45.9453 82.894 45.1513 82.0967 44.1494 81.4965L43.6354 82.3543L43.1215 83.2122C43.8427 83.6442 44.3863 84.1974 44.7732 84.8755L45.6418 84.38ZM43.6354 82.3543L44.1723 81.5107C43.1278 80.846 41.914 80.5301 40.5721 80.5237L40.5674 81.5237L40.5626 82.5237C41.5887 82.5286 42.4203 82.7664 43.0986 83.198L43.6354 82.3543ZM40.5674 81.5237L40.5721 80.5237L27.8523 80.463L27.8475 81.463L27.8427 82.463L40.5626 82.5237L40.5674 81.5237ZM27.8475 81.463L26.8475 81.4582L26.7946 92.5461L27.7946 92.5508L28.7946 92.5556L28.8475 81.4677L27.8475 81.463ZM27.8661 77.575L27.8613 78.575L39.9092 78.6325L39.9139 77.6325L39.9187 76.6325L27.8709 76.575L27.8661 77.575ZM39.9139 77.6325L39.9092 78.6325C41.1752 78.6386 42.3306 78.3715 43.3409 77.7951L42.8454 76.9265L42.3498 76.0579C41.6915 76.4335 40.8927 76.6372 39.9187 76.6325L39.9139 77.6325ZM42.8454 76.9265L43.351 77.7892C44.3545 77.201 45.1461 76.4262 45.6929 75.4607L44.8227 74.9679L43.9526 74.4752C43.5957 75.1054 43.069 75.6363 42.3397 76.0638L42.8454 76.9265ZM44.8227 74.9679L45.6865 75.4718C46.2523 74.5018 46.5499 73.4682 46.5551 72.3842L45.5551 72.3794L44.5551 72.3746C44.5517 73.0826 44.3611 73.7746 43.9589 74.4641L44.8227 74.9679ZM45.5551 72.3794L46.5551 72.3842C46.5603 71.2872 46.2982 70.2628 45.7614 69.3325L44.8952 69.8322L44.0291 70.332C44.381 70.9419 44.5587 71.6156 44.5551 72.3746L45.5551 72.3794ZM44.8952 69.8322L45.7701 69.3478C45.2399 68.3904 44.495 67.6208 43.551 67.0483L43.0324 67.9033L42.5138 68.7583C43.1653 69.1534 43.6622 69.6698 44.0204 70.3167L44.8952 69.8322ZM43.0324 67.9033L43.551 67.0483C42.5787 66.4586 41.4695 66.1758 40.2567 66.17L40.2519 67.17L40.2471 68.17C41.1463 68.1743 41.8908 68.3804 42.5138 68.7583L43.0324 67.9033ZM40.2519 67.17L40.2567 66.17L27.9208 66.1111L27.916 67.1111L27.9113 68.1111L40.2471 68.17L40.2519 67.17ZM27.916 67.1111L26.916 67.1064L26.8661 77.5702L27.8661 77.575L28.8661 77.5798L28.916 67.1159L27.916 67.1111ZM59.5219 95.6783L58.9632 96.5078L58.974 96.5149L59.5219 95.6783ZM55.5602 91.0034L54.655 91.4284L55.5602 91.0034ZM55.766 78.0442L56.6462 78.519L56.6494 78.513L55.766 78.0442ZM60.204 73.4573L60.7038 74.3236L60.7144 74.3173L60.204 73.4573ZM73.7881 73.4742L73.2673 74.3279L73.7881 73.4742ZM78.0382 78.0545L77.1476 78.5093L77.1537 78.5209L78.0382 78.0545ZM79.4844 96.8777L79.4796 97.8776L80.4796 97.8824L80.4844 96.8824L79.4844 96.8777ZM75.0204 96.8563L74.0205 96.8516L74.0157 97.8516L75.0157 97.8563L75.0204 96.8563ZM75.0443 91.8644L76.0443 91.8692L76.049 90.8692L75.0491 90.8644L75.0443 91.8644ZM74.9483 91.8639L74.9531 90.864L74.3445 90.861L74.0623 91.4003L74.9483 91.8639ZM72.9675 94.5425L72.2505 93.8454L72.25 93.846L72.9675 94.5425ZM69.9337 96.5921L69.5296 95.6773L69.9337 96.5921ZM71.0573 92.4694L71.5873 93.3174L71.593 93.3138L71.0573 92.4694ZM73.9529 89.2192L73.0606 88.7677L73.0564 88.776L73.9529 89.2192ZM74.0451 79.9555L73.1402 80.3811L73.1443 80.3898L73.1486 80.3984L74.0451 79.9555ZM71.2763 76.7742L70.7227 77.607L70.7304 77.6122L70.7383 77.6172L71.2763 76.7742ZM62.5404 76.7325L62.0047 75.888L61.9948 75.8945L62.5404 76.7325ZM59.6928 79.983L58.7963 79.5398L58.792 79.5487L59.6928 79.983ZM59.6491 89.1509L58.7403 89.5683L58.7442 89.5765L59.6491 89.1509ZM62.4177 92.3801L61.8641 93.2129L62.4177 92.3801ZM65.6578 97.3876L65.6626 96.3877C63.458 96.3771 61.6078 95.8491 60.0698 94.8418L59.5219 95.6783L58.974 96.5149C60.8813 97.764 63.1217 98.3756 65.653 98.3876L65.6578 97.3876ZM59.5219 95.6783L60.0806 94.8489C58.5143 93.7939 57.3105 92.3781 56.4653 90.5783L55.5602 91.0034L54.655 91.4284C55.6472 93.5415 57.0846 95.2423 58.9632 96.5077L59.5219 95.6783ZM55.5602 91.0034L56.4653 90.5783C55.6156 88.7688 55.1884 86.7554 55.1991 84.5216L54.1991 84.5168L53.1991 84.512C53.1872 87.0141 53.6673 89.3251 54.655 91.4284L55.5602 91.0034ZM54.1991 84.5168L55.1991 84.5216C55.2099 82.2685 55.6987 80.2752 56.6461 78.519L55.766 78.0442L54.8859 77.5694C53.7671 79.6434 53.2113 81.9651 53.1991 84.512L54.1991 84.5168ZM55.766 78.0442L56.6494 78.513C57.5939 76.7332 58.9396 75.3413 60.7037 74.3235L60.204 73.4573L59.7042 72.5912C57.6177 73.795 56.0048 75.461 54.8827 77.5754L55.766 78.0442ZM60.204 73.4573L60.7144 74.3173C62.4554 73.284 64.5762 72.7502 67.1194 72.7623L67.1242 71.7624L67.1289 70.7624C64.2962 70.7488 61.8036 71.3451 59.6936 72.5974L60.204 73.4573ZM67.1242 71.7624L67.1194 72.7623C69.5651 72.774 71.6001 73.311 73.2673 74.3279L73.7881 73.4742L74.3088 72.6205C72.2747 71.3797 69.8671 70.7754 67.1289 70.7624L67.1242 71.7624ZM73.7881 73.4742L73.2673 74.3279C74.9607 75.3608 76.2491 76.7497 77.1476 78.5093L78.0382 78.0545L78.9288 77.5998C77.8617 75.5099 76.3167 73.8453 74.3088 72.6205L73.7881 73.4742ZM78.0382 78.0545L77.1537 78.5209C78.0853 80.288 78.5541 82.2704 78.5435 84.489L79.5435 84.4938L80.5435 84.4986C80.5555 81.9813 80.0208 79.6708 78.9228 77.5882L78.0382 78.0545ZM79.5435 84.4938L78.5435 84.489L78.4844 96.8729L79.4844 96.8777L80.4844 96.8824L80.5435 84.4986L79.5435 84.4938ZM79.4844 96.8777L79.4892 95.8777L75.0252 95.8564L75.0204 96.8563L75.0157 97.8563L79.4796 97.8776L79.4844 96.8777ZM75.0204 96.8563L76.0204 96.8611L76.0443 91.8692L75.0443 91.8644L74.0443 91.8596L74.0205 96.8516L75.0204 96.8563ZM75.0443 91.8644L75.0491 90.8644L74.9531 90.864L74.9483 91.8639L74.9435 92.8639L75.0395 92.8644L75.0443 91.8644ZM74.9483 91.8639L74.0623 91.4003C73.6287 92.2289 73.029 93.0446 72.2505 93.8454L72.9675 94.5425L73.6845 95.2396C74.5782 94.3204 75.299 93.3504 75.8343 92.3276L74.9483 91.8639ZM72.9675 94.5425L72.25 93.846C71.5482 94.5688 70.6486 95.1831 69.5296 95.6773L69.9337 96.5921L70.3377 97.5068C71.6559 96.9246 72.7788 96.1725 73.685 95.2391L72.9675 94.5425ZM69.9337 96.5921L69.5296 95.6773C68.4654 96.1473 67.1847 96.3949 65.6626 96.3877L65.6578 97.3876L65.653 98.3876C67.3948 98.396 68.9648 98.1132 70.3377 97.5068L69.9337 96.5921ZM66.8279 93.6012L66.8231 94.6012C68.5902 94.6096 70.1897 94.1908 71.5873 93.3174L71.0573 92.4694L70.5274 91.6213C69.4857 92.2723 68.2656 92.608 66.8327 92.6012L66.8279 93.6012ZM71.0573 92.4694L71.593 93.3138C73.0049 92.4183 74.0924 91.1937 74.8494 89.6623L73.9529 89.2192L73.0564 88.776C72.4563 89.9902 71.6135 90.9324 70.5217 91.6249L71.0573 92.4694ZM73.9529 89.2192L74.8452 89.6706C75.6326 88.1144 76.0224 86.3928 76.0313 84.525L75.0313 84.5203L74.0314 84.5155C74.0238 86.1036 73.6946 87.5147 73.0606 88.7677L73.9529 89.2192ZM75.0313 84.5203L76.0313 84.525C76.0401 82.6939 75.6844 81.0159 74.9417 79.5126L74.0451 79.9555L73.1486 80.3984C73.737 81.5894 74.0388 82.9546 74.0314 84.5155L75.0313 84.5203ZM74.0451 79.9555L74.95 79.5299C74.239 78.0182 73.1917 76.8104 71.8143 75.9313L71.2763 76.7742L70.7383 77.6172C71.7855 78.2856 72.5841 79.1987 73.1402 80.3811L74.0451 79.9555ZM71.2763 76.7742L71.8299 75.9415C70.4358 75.0147 68.8177 74.5625 67.0148 74.5539L67.0101 75.5539L67.0053 76.5538C68.4664 76.5608 69.6925 76.9222 70.7227 77.607L71.2763 76.7742ZM67.0101 75.5539L67.0148 74.5539C65.1279 74.5449 63.4434 74.9755 62.0047 75.8881L62.5404 76.7325L63.076 77.577C64.141 76.9015 65.4363 76.5464 67.0053 76.5538L67.0101 75.5539ZM62.5404 76.7325L61.9948 75.8945C60.6168 76.7917 59.55 78.0151 58.7964 79.5399L59.6928 79.983L60.5893 80.4261C61.1927 79.2053 62.0244 78.2618 63.086 77.5706L62.5404 76.7325ZM59.6928 79.983L58.792 79.5487C58.0714 81.0436 57.7197 82.7287 57.7109 84.5816L58.7108 84.5863L59.7108 84.5911C59.7185 82.988 60.0214 81.6042 60.5936 80.4172L59.6928 79.983ZM58.7108 84.5863L57.7109 84.5816C57.7023 86.377 58.0404 88.0445 58.7403 89.5683L59.6491 89.1509L60.5578 88.7335C59.9908 87.4992 59.7035 86.1236 59.7108 84.5911L58.7108 84.5863ZM59.6491 89.1509L58.7442 89.5765C59.4536 91.0848 60.4962 92.3036 61.8641 93.2129L62.4177 92.3801L62.9713 91.5473C61.9148 90.845 61.1117 89.911 60.554 88.7253L59.6491 89.1509ZM62.4177 92.3801L61.8641 93.2129C63.2673 94.1457 64.937 94.5922 66.8231 94.6012L66.8279 93.6012L66.8327 92.6012C65.2629 92.5937 63.9923 92.2261 62.9713 91.5473L62.4177 92.3801ZM85.4116 96.9059L84.4116 96.9012L84.4068 97.9012L85.4068 97.9059L85.4116 96.9059ZM87.3435 74.3069L88.0472 75.0174L87.3435 74.3069ZM97.5283 72.4835L98.5283 72.4883L98.5331 71.4883L97.5331 71.4835L97.5283 72.4835ZM97.5102 76.2755L97.5054 77.2755L98.5054 77.2802L98.5102 76.2802L97.5102 76.2755ZM90.7859 77.1554L90.0822 76.4449L90.0726 76.4544L90.0633 76.4642L90.7859 77.1554ZM89.8275 96.927L89.8228 97.927L90.8227 97.9318L90.8275 96.9318L89.8275 96.927ZM85.4116 96.9059L86.4116 96.9107L86.4952 79.3909L85.4952 79.3861L84.4952 79.3814L84.4116 96.9012L85.4116 96.9059ZM85.4952 79.3861L86.4952 79.3909C86.5047 77.4061 87.0606 75.9946 88.0472 75.0174L87.3435 74.3069L86.6398 73.5964C85.1828 75.0396 84.5065 77.0142 84.4952 79.3814L85.4952 79.3861ZM87.3435 74.3069L88.0472 75.0174C89.0708 74.0036 90.5073 73.45 92.4836 73.4594L92.4884 72.4594L92.4931 71.4595C90.1175 71.4481 88.1241 72.1262 86.6398 73.5964L87.3435 74.3069ZM92.4884 72.4594L92.4836 73.4594L97.5235 73.4835L97.5283 72.4835L97.5331 71.4835L92.4931 71.4595L92.4884 72.4594ZM97.5283 72.4835L96.5283 72.4787L96.5102 76.2707L97.5102 76.2755L98.5102 76.2802L98.5283 72.4883L97.5283 72.4835ZM97.5102 76.2755L97.515 75.2755L93.291 75.2553L93.2863 76.2553L93.2815 77.2553L97.5054 77.2755L97.5102 76.2755ZM93.2863 76.2553L93.291 75.2553C92.0341 75.2493 90.9228 75.6123 90.0822 76.4449L90.7859 77.1554L91.4897 77.8659C91.8709 77.4882 92.4264 77.2512 93.2815 77.2553L93.2863 76.2553ZM90.7859 77.1554L90.0633 76.4642C89.2595 77.3045 88.9158 78.4257 88.9098 79.6904L89.9098 79.6952L90.9098 79.7C90.9141 78.7887 91.1546 78.2167 91.5086 77.8466L90.7859 77.1554ZM89.9098 79.6952L88.9098 79.6904L88.8275 96.9223L89.8275 96.927L90.8275 96.9318L90.9098 79.7L89.9098 79.6952ZM89.8275 96.927L89.8323 95.927L85.4164 95.906L85.4116 96.9059L85.4068 97.9059L89.8228 97.927L89.8275 96.927ZM100.533 96.9781L99.5329 96.9734L99.5281 97.9733L100.528 97.9781L100.533 96.9781ZM100.65 72.4984L100.655 71.4984L99.6546 71.4936L99.6498 72.4936L100.65 72.4984ZM105.114 72.5197L106.114 72.5245L106.118 71.5245L105.118 71.5197L105.114 72.5197ZM104.997 96.9994L104.992 97.9994L105.992 98.0042L105.997 97.0042L104.997 96.9994ZM100.816 67.7472L100.087 68.4314L100.106 68.4511L100.125 68.4698L100.816 67.7472ZM100.836 63.5712L100.133 62.8607L100.836 63.5712ZM105.012 63.5911L104.283 64.2754L104.302 64.2951L104.321 64.3138L105.012 63.5911ZM104.992 67.7671L104.289 67.0566L104.992 67.7671ZM100.533 96.9781L101.533 96.9829L101.65 72.5032L100.65 72.4984L99.6498 72.4936L99.5329 96.9734L100.533 96.9781ZM100.65 72.4984L100.645 73.4984L105.109 73.5197L105.114 72.5197L105.118 71.5197L100.655 71.4984L100.65 72.4984ZM105.114 72.5197L104.114 72.5149L103.997 96.9947L104.997 96.9994L105.997 97.0042L106.114 72.5245L105.114 72.5197ZM104.997 96.9994L105.002 95.9995L100.538 95.9781L100.533 96.9781L100.528 97.9781L104.992 97.9994L104.997 96.9994ZM102.924 68.6212L102.929 67.6212C102.398 67.6187 101.938 67.4357 101.508 67.0245L100.816 67.7472L100.125 68.4698C100.906 69.2164 101.851 69.6161 102.92 69.6212L102.924 68.6212ZM100.816 67.7472L101.546 67.0629C101.139 66.6291 100.96 66.167 100.963 65.6358L99.9625 65.6311L98.9626 65.6263C98.9575 66.6951 99.3481 67.6438 100.087 68.4314L100.816 67.7472ZM99.9625 65.6311L100.963 65.6358C100.965 65.1064 101.146 64.6721 101.54 64.2817L100.836 63.5712L100.133 62.8607C99.3694 63.6168 98.9677 64.5557 98.9626 65.6263L99.9625 65.6311ZM100.836 63.5712L101.54 64.2817C101.978 63.8478 102.434 63.6668 102.948 63.6693L102.953 62.6693L102.957 61.6693C101.871 61.6641 100.916 62.0844 100.133 62.8607L100.836 63.5712ZM102.953 62.6693L102.948 63.6693C103.459 63.6717 103.888 63.8544 104.283 64.2754L105.012 63.5911L105.742 62.9069C104.99 62.1064 104.046 61.6745 102.957 61.6693L102.953 62.6693ZM105.012 63.5911L104.321 64.3138C104.738 64.7129 104.917 65.1434 104.914 65.6547L105.914 65.6595L106.914 65.6642C106.92 64.5755 106.497 63.6272 105.704 62.8685L105.012 63.5911ZM105.914 65.6595L104.914 65.6547C104.912 66.1683 104.727 66.6227 104.289 67.0566L104.992 67.7671L105.696 68.4776C106.48 67.7013 106.909 66.7506 106.914 65.6642L105.914 65.6595ZM104.992 67.7671L104.289 67.0566C103.895 67.447 103.458 67.6238 102.929 67.6212L102.924 68.6212L102.92 69.6212C103.99 69.6263 104.933 69.2336 105.696 68.4776L104.992 67.7671ZM110.674 97.0265L109.674 97.0218L109.67 98.0218L110.67 98.0265L110.674 97.0265ZM110.692 93.2346L110.697 92.2346L109.697 92.2298L109.692 93.2298L110.692 93.2346ZM124.375 92.8199L124.877 93.6843L124.885 93.68L124.892 93.6757L124.375 92.8199ZM125.677 91.4821L124.795 91.01L125.677 91.4821ZM125.741 88.1704L124.844 88.6133L124.85 88.6251L124.856 88.6367L125.741 88.1704ZM124.546 86.9647L124.012 87.8101L124.043 87.8293L124.074 87.8462L124.546 86.9647ZM113.609 85.6644L113.177 86.5666L113.192 86.5738L113.207 86.5804L113.609 85.6644ZM110.884 83.2994L110.033 83.8253L110.039 83.8348L110.045 83.8441L110.884 83.2994ZM113.426 73.5674L113.929 74.4318L113.939 74.4263L113.948 74.4207L113.426 73.5674ZM128.455 72.6312L129.455 72.6359L129.46 71.6359L128.46 71.6312L128.455 72.6312ZM128.437 76.4231L128.432 77.4231L129.432 77.4279L129.437 76.4279L128.437 76.4231ZM115.233 77.2721L114.51 76.5809L114.51 76.5809L115.233 77.2721ZM115.212 81.544L114.483 82.2283L114.502 82.248L114.521 82.2667L115.212 81.544ZM126.868 83.3277L126.426 84.2248L126.441 84.2319L126.455 84.2386L126.868 83.3277ZM129.592 85.7407L128.723 86.2356L128.729 86.2453L128.735 86.2549L129.592 85.7407ZM129.556 93.3246L130.422 93.825L130.428 93.8145L129.556 93.3246ZM126.855 96.0478L126.338 95.192L126.327 95.1986L126.855 96.0478ZM110.674 97.0265L111.674 97.0313L111.692 93.2394L110.692 93.2346L109.692 93.2298L109.674 97.0218L110.674 97.0265ZM110.692 93.2346L110.688 94.2346L122.399 94.2905L122.404 93.2905L122.409 92.2905L110.697 92.2346L110.692 93.2346ZM122.404 93.2905L122.399 94.2905C123.307 94.2948 124.148 94.1089 124.877 93.6843L124.375 92.8199L123.872 91.9556C123.51 92.1657 123.037 92.2935 122.409 92.2905L122.404 93.2905ZM124.375 92.8199L124.892 93.6757C125.608 93.2428 126.175 92.6701 126.558 91.9542L125.677 91.4821L124.795 91.01C124.598 91.3793 124.297 91.6985 123.857 91.9641L124.375 92.8199ZM125.677 91.4821L126.558 91.9542C126.925 91.2697 127.113 90.5342 127.117 89.761L126.117 89.7562L125.117 89.7514C125.115 90.1942 125.01 90.6093 124.795 91.01L125.677 91.4821ZM126.117 89.7562L127.117 89.761C127.121 89.0308 126.96 88.339 126.625 87.704L125.741 88.1704L124.856 88.6367C125.029 88.9642 125.119 89.3296 125.117 89.7514L126.117 89.7562ZM125.741 88.1704L126.637 87.7274C126.284 87.013 125.73 86.4643 125.019 86.0831L124.546 86.9647L124.074 87.8462C124.448 88.0462 124.69 88.3013 124.844 88.6133L125.741 88.1704ZM124.546 86.9647L125.081 86.1192C124.38 85.6767 123.564 85.4799 122.682 85.4757L122.677 86.4757L122.672 87.4757C123.262 87.4785 123.692 87.6077 124.012 87.8101L124.546 86.9647ZM122.677 86.4757L122.682 85.4757L117.738 85.4521L117.733 86.4521L117.728 87.4521L122.672 87.4757L122.677 86.4757ZM117.733 86.4521L117.738 85.4521C116.277 85.4452 115.042 85.2009 114.01 84.7485L113.609 85.6644L113.207 86.5804C114.538 87.1633 116.052 87.4441 117.728 87.4521L117.733 86.4521ZM113.609 85.6644L114.04 84.7622C113.05 84.2888 112.285 83.6212 111.722 82.7547L110.884 83.2994L110.045 83.8441C110.817 85.032 111.869 85.9411 113.177 86.5666L113.609 85.6644ZM110.884 83.2994L111.734 82.7735C111.217 81.9375 110.935 80.8814 110.942 79.5556L109.942 79.5509L108.942 79.5461C108.934 81.1643 109.28 82.6072 110.033 83.8253L110.884 83.2994ZM109.942 79.5509L110.942 79.5556C110.947 78.4783 111.212 77.5003 111.734 76.6023L110.87 76.0992L110.006 75.5962C109.303 76.8044 108.948 78.1274 108.942 79.5461L109.942 79.5509ZM110.87 76.0992L111.734 76.6023C112.257 75.7044 112.982 74.9827 113.929 74.4318L113.426 73.5674L112.923 72.7031C111.688 73.4217 110.709 74.3879 110.006 75.5962L110.87 76.0992ZM113.426 73.5674L113.948 74.4207C114.865 73.8603 115.929 73.5714 117.17 73.5773L117.175 72.5773L117.18 71.5773C115.606 71.5698 114.17 71.9409 112.905 72.7141L113.426 73.5674ZM117.175 72.5773L117.17 73.5773L128.45 73.6311L128.455 72.6312L128.46 71.6312L117.18 71.5773L117.175 72.5773ZM128.455 72.6312L127.455 72.6264L127.437 76.4183L128.437 76.4231L129.437 76.4279L129.455 72.6359L128.455 72.6312ZM128.437 76.4231L128.442 75.4231L117.594 75.3713L117.589 76.3713L117.584 77.3713L128.432 77.4231L128.437 76.4231ZM117.589 76.3713L117.594 75.3713C116.382 75.3655 115.314 75.7407 114.51 76.5809L115.233 77.2721L115.955 77.9633C116.31 77.5929 116.812 77.3676 117.584 77.3713L117.589 76.3713ZM115.233 77.2721L114.51 76.5809C113.756 77.3697 113.364 78.3334 113.358 79.4232L114.358 79.4279L115.358 79.4327C115.361 78.8585 115.552 78.385 115.955 77.9633L115.233 77.2721ZM114.358 79.4279L113.358 79.4232C113.353 80.492 113.744 81.4406 114.483 82.2283L115.212 81.544L115.941 80.8598C115.534 80.4259 115.356 79.9639 115.358 79.4327L114.358 79.4279ZM115.212 81.544L114.521 82.2667C115.361 83.0705 116.483 83.4141 117.747 83.4202L117.752 82.4202L117.757 81.4202C116.846 81.4158 116.274 81.1754 115.903 80.8214L115.212 81.544ZM117.752 82.4202L117.747 83.4202L122.451 83.4426L122.456 82.4426L122.461 81.4426L117.757 81.4202L117.752 82.4202ZM122.456 82.4426L122.451 83.4426C124.108 83.4505 125.419 83.7288 126.426 84.2248L126.868 83.3277L127.31 82.4306C125.955 81.7634 124.324 81.4515 122.461 81.4426L122.456 82.4426ZM126.868 83.3277L126.455 84.2386C127.495 84.7098 128.235 85.3772 128.723 86.2356L129.592 85.7407L130.461 85.2459C129.744 83.9865 128.667 83.0452 127.281 82.4168L126.868 83.3277ZM129.592 85.7407L128.735 86.2549C129.255 87.1232 129.541 88.231 129.534 89.6285L130.534 89.6333L131.534 89.638C131.542 87.9636 131.199 86.4764 130.45 85.2265L129.592 85.7407ZM130.534 89.6333L129.534 89.6285C129.528 90.7698 129.247 91.8334 128.684 92.8348L129.556 93.3246L130.428 93.8145C131.156 92.5181 131.527 91.1208 131.534 89.638L130.534 89.6333ZM129.556 93.3246L128.69 92.8244C128.133 93.7884 127.356 94.5765 126.338 95.192L126.855 96.0478L127.373 96.9035C128.665 96.122 129.688 95.0947 130.422 93.8249L129.556 93.3246ZM126.855 96.0478L126.327 95.1986C125.385 95.7847 124.261 96.0914 122.919 96.085L122.914 97.085L122.909 98.085C124.575 98.0929 126.079 97.7081 127.383 96.8969L126.855 96.0478ZM122.914 97.085L122.919 96.085L110.679 96.0266L110.674 97.0265L110.67 98.0265L122.909 98.085L122.914 97.085ZM137.884 95.2844L137.165 95.9789L137.174 95.9881L137.884 95.2844ZM136.198 66.524L136.202 65.5241L135.202 65.5193L135.198 66.5193L136.198 66.524ZM140.614 66.5451L141.614 66.5499L141.618 65.5499L140.618 65.5451L140.614 66.5451ZM141.354 92.469L140.607 93.1344L140.625 93.154L140.643 93.1727L141.354 92.469ZM148.789 93.4165L149.789 93.4212L149.794 92.4212L148.794 92.4165L148.789 93.4165ZM148.771 97.2084L148.766 98.2084L149.766 98.2132L149.771 97.2132L148.771 97.2084ZM131.926 76.4398L130.926 76.435L130.921 77.435L131.921 77.4398L131.926 76.4398ZM131.944 72.6478L131.949 71.6478L130.949 71.643L130.944 72.643L131.944 72.6478ZM148.984 72.7292L149.984 72.7339L149.989 71.7339L148.989 71.7292L148.984 72.7292ZM148.966 76.5211L148.961 77.5211L149.961 77.5259L149.966 76.5259L148.966 76.5211ZM143.011 97.1809L143.016 96.1809C141.04 96.1715 139.609 95.6043 138.595 94.5807L137.884 95.2844L137.174 95.9881C138.644 97.4725 140.631 98.1696 143.007 98.1809L143.011 97.1809ZM137.884 95.2844L138.604 94.59C137.615 93.565 137.075 92.1393 137.085 90.1926L136.085 90.1878L135.085 90.183C135.073 92.5242 135.734 94.4962 137.165 95.9789L137.884 95.2844ZM136.085 90.1878L137.085 90.1926L137.198 66.5288L136.198 66.524L135.198 66.5193L135.085 90.183L136.085 90.1878ZM136.198 66.524L136.193 67.524L140.609 67.5451L140.614 66.5451L140.618 65.5451L136.202 65.5241L136.198 66.524ZM140.614 66.5451L139.614 66.5404L139.502 89.9161L140.502 89.9209L141.502 89.9256L141.614 66.5499L140.614 66.5451ZM140.502 89.9209L139.502 89.9161C139.496 91.1606 139.835 92.2678 140.607 93.1344L141.354 92.469L142.1 91.8035C141.727 91.3847 141.498 90.7931 141.502 89.9256L140.502 89.9209ZM141.354 92.469L140.643 93.1727C141.476 94.0132 142.584 94.3869 143.841 94.3929L143.845 93.3929L143.85 92.3929C142.995 92.3888 142.442 92.1465 142.064 91.7652L141.354 92.469ZM143.845 93.3929L143.841 94.3929L148.785 94.4165L148.789 93.4165L148.794 92.4165L143.85 92.3929L143.845 93.3929ZM148.789 93.4165L147.789 93.4117L147.771 97.2036L148.771 97.2084L149.771 97.2132L149.789 93.4212L148.789 93.4165ZM148.771 97.2084L148.776 96.2084L143.016 96.1809L143.011 97.1809L143.007 98.1809L148.766 98.2084L148.771 97.2084ZM131.926 76.4398L132.926 76.4445L132.944 72.6526L131.944 72.6478L130.944 72.643L130.926 76.435L131.926 76.4398ZM131.944 72.6478L131.94 73.6478L148.979 73.7291L148.984 72.7292L148.989 71.7292L131.949 71.6478L131.944 72.6478ZM148.984 72.7292L147.984 72.7244L147.966 76.5163L148.966 76.5211L149.966 76.5259L149.984 72.7339L148.984 72.7292ZM148.966 76.5211L148.971 75.5211L131.931 75.4398L131.926 76.4398L131.921 77.4398L148.961 77.5211L148.966 76.5211ZM156.533 96.1415L155.975 96.9709L155.985 96.978L156.533 96.1415ZM152.572 91.4665L151.666 91.8915L152.572 91.4665ZM152.777 78.5073L153.658 78.9821L153.661 78.9761L152.777 78.5073ZM157.215 73.9205L157.715 74.7867L157.726 74.7804L157.215 73.9205ZM170.799 73.9373L170.279 74.791L170.799 73.9373ZM175.05 78.5177L174.159 78.9725L174.165 78.984L175.05 78.5177ZM176.496 97.3408L176.491 98.3408L177.491 98.3455L177.496 97.3455L176.496 97.3408ZM172.032 97.3195L171.032 97.3147L171.027 98.3147L172.027 98.3195L172.032 97.3195ZM172.056 92.3275L173.056 92.3323L173.06 91.3323L172.06 91.3275L172.056 92.3275ZM171.96 92.3271L171.964 91.3271L171.356 91.3242L171.074 91.8634L171.96 92.3271ZM169.979 95.0056L169.262 94.3086L169.261 94.3091L169.979 95.0056ZM166.945 97.0552L166.541 96.1404L166.945 97.0552ZM168.069 92.9325L168.599 93.7805L168.604 93.7769L168.069 92.9325ZM170.964 89.6823L170.072 89.2308L170.068 89.2392L170.964 89.6823ZM171.057 80.4186L170.152 80.8442L170.156 80.8529L170.16 80.8615L171.057 80.4186ZM168.288 77.2374L167.734 78.0701L167.742 78.0753L167.75 78.0803L168.288 77.2374ZM159.552 77.1957L159.016 76.3512L159.006 76.3576L159.552 77.1957ZM156.704 80.4461L155.808 80.003L155.803 80.0119L156.704 80.4461ZM156.66 89.614L155.752 90.0314L155.756 90.0396L156.66 89.614ZM159.429 92.8432L158.875 93.676L159.429 92.8432ZM162.669 97.8508L162.674 96.8508C160.469 96.8403 158.619 96.3122 157.081 95.3049L156.533 96.1415L155.985 96.978C157.893 98.2272 160.133 98.8387 162.664 98.8508L162.669 97.8508ZM156.533 96.1415L157.092 95.3121C155.526 94.257 154.322 92.8412 153.477 91.0415L152.572 91.4665L151.666 91.8915C152.659 94.0046 154.096 95.7054 155.975 96.9709L156.533 96.1415ZM152.572 91.4665L153.477 91.0415C152.627 89.2319 152.2 87.2185 152.211 84.9847L151.211 84.9799L150.211 84.9751C150.199 87.4773 150.679 89.7882 151.666 91.8915L152.572 91.4665ZM151.211 84.9799L152.211 84.9847C152.221 82.7316 152.71 80.7383 153.658 78.9821L152.777 78.5073L151.897 78.0325C150.778 80.1065 150.223 82.4283 150.211 84.9751L151.211 84.9799ZM152.777 78.5073L153.661 78.9761C154.605 77.1963 155.951 75.8045 157.715 74.7866L157.215 73.9205L156.716 73.0543C154.629 74.2581 153.016 75.9242 151.894 78.0386L152.777 78.5073ZM157.215 73.9205L157.726 74.7804C159.467 73.7471 161.588 73.2133 164.131 73.2255L164.136 72.2255L164.14 71.2255C161.308 71.212 158.815 71.8082 156.705 73.0605L157.215 73.9205ZM164.136 72.2255L164.131 73.2255C166.577 73.2371 168.612 73.7741 170.279 74.791L170.799 73.9373L171.32 73.0836C169.286 71.8428 166.879 71.2386 164.14 71.2255L164.136 72.2255ZM170.799 73.9373L170.279 74.791C171.972 75.8239 173.261 77.2129 174.159 78.9724L175.05 78.5177L175.94 78.0629C174.873 75.973 173.328 74.3084 171.32 73.0836L170.799 73.9373ZM175.05 78.5177L174.165 78.984C175.097 80.7511 175.566 82.7335 175.555 84.9521L176.555 84.9569L177.555 84.9617C177.567 82.4444 177.032 80.1339 175.934 78.0513L175.05 78.5177ZM176.555 84.9569L175.555 84.9521L175.496 97.336L176.496 97.3408L177.496 97.3455L177.555 84.9617L176.555 84.9569ZM176.496 97.3408L176.501 96.3408L172.037 96.3195L172.032 97.3195L172.027 98.3195L176.491 98.3408L176.496 97.3408ZM172.032 97.3195L173.032 97.3242L173.056 92.3323L172.056 92.3275L171.056 92.3228L171.032 97.3147L172.032 97.3195ZM172.056 92.3275L172.06 91.3275L171.964 91.3271L171.96 92.3271L171.955 93.3271L172.051 93.3275L172.056 92.3275ZM171.96 92.3271L171.074 91.8634C170.64 92.692 170.04 93.5078 169.262 94.3086L169.979 95.0056L170.696 95.7027C171.59 94.7835 172.31 93.8135 172.846 92.7907L171.96 92.3271ZM169.979 95.0056L169.261 94.3091C168.56 95.032 167.66 95.6462 166.541 96.1404L166.945 97.0552L167.349 97.9699C168.667 97.3877 169.79 96.6356 170.696 95.7022L169.979 95.0056ZM166.945 97.0552L166.541 96.1404C165.477 96.6105 164.196 96.858 162.674 96.8508L162.669 97.8508L162.664 98.8508C164.406 98.8591 165.976 98.5763 167.349 97.9699L166.945 97.0552ZM163.839 94.0643L163.835 95.0643C165.602 95.0727 167.201 94.6539 168.599 93.7805L168.069 92.9325L167.539 92.0845C166.497 92.7354 165.277 93.0712 163.844 93.0643L163.839 94.0643ZM168.069 92.9325L168.604 93.7769C170.016 92.8814 171.104 91.6568 171.861 90.1254L170.964 89.6823L170.068 89.2392C169.468 90.4533 168.625 91.3955 167.533 92.0881L168.069 92.9325ZM170.964 89.6823L171.857 90.1338C172.644 88.5775 173.034 86.856 173.043 84.9882L172.043 84.9834L171.043 84.9786C171.035 86.5668 170.706 87.9778 170.072 89.2308L170.964 89.6823ZM172.043 84.9834L173.043 84.9882C173.051 83.1571 172.696 81.4791 171.953 79.9757L171.057 80.4186L170.16 80.8615C170.748 82.0526 171.05 83.4177 171.043 84.9786L172.043 84.9834ZM171.057 80.4186L171.961 79.993C171.25 78.4813 170.203 77.2736 168.826 76.3944L168.288 77.2374L167.75 78.0803C168.797 78.7487 169.595 79.6619 170.152 80.8442L171.057 80.4186ZM168.288 77.2374L168.841 76.4046C167.447 75.4778 165.829 75.0256 164.026 75.017L164.021 76.017L164.017 77.017C165.478 77.0239 166.704 77.3853 167.734 78.0701L168.288 77.2374ZM164.021 76.017L164.026 75.017C162.139 75.008 160.455 75.4387 159.016 76.3512L159.552 77.1957L160.087 78.0401C161.152 77.3646 162.448 77.0095 164.017 77.017L164.021 76.017ZM159.552 77.1957L159.006 76.3576C157.628 77.2548 156.561 78.4782 155.808 80.003L156.704 80.4461L157.601 80.8892C158.204 79.6684 159.036 78.7249 160.097 78.0337L159.552 77.1957ZM156.704 80.4461L155.803 80.0119C155.083 81.5067 154.731 83.1918 154.722 85.0447L155.722 85.0495L156.722 85.0542C156.73 83.4512 157.033 82.0673 157.605 80.8803L156.704 80.4461ZM155.722 85.0495L154.722 85.0447C154.714 86.8401 155.052 88.5076 155.752 90.0314L156.66 89.614L157.569 89.1966C157.002 87.9623 156.715 86.5868 156.722 85.0542L155.722 85.0495ZM156.66 89.614L155.756 90.0396C156.465 91.548 157.508 92.7668 158.875 93.676L159.429 92.8432L159.983 92.0105C158.926 91.3082 158.123 90.3741 157.565 89.1884L156.66 89.614ZM159.429 92.8432L158.875 93.676C160.279 94.6089 161.948 95.0553 163.835 95.0643L163.839 94.0643L163.844 93.0643C162.274 93.0568 161.004 92.6892 159.983 92.0105L159.429 92.8432ZM182.231 97.3682L181.231 97.3634L181.226 98.3634L182.226 98.3681L182.231 97.3682ZM182.249 93.5762L182.254 92.5762L181.254 92.5714L181.249 93.5714L182.249 93.5762ZM195.931 93.1615L196.434 94.0259L196.441 94.0216L196.449 94.0173L195.931 93.1615ZM197.234 91.8237L196.352 91.3516L197.234 91.8237ZM197.297 88.512L196.401 88.9549L196.407 88.9667L196.413 88.9783L197.297 88.512ZM196.103 87.3063L195.569 88.1517L195.599 88.1709L195.631 88.1878L196.103 87.3063ZM185.165 86.006L184.734 86.9082L184.749 86.9154L184.764 86.922L185.165 86.006ZM182.441 83.641L181.59 84.1669L181.596 84.1764L181.602 84.1857L182.441 83.641ZM184.983 73.909L185.486 74.7734L185.495 74.7679L185.504 74.7623L184.983 73.909ZM200.012 72.9728L201.012 72.9775L201.016 71.9775L200.016 71.9728L200.012 72.9728ZM199.994 76.7647L199.989 77.7647L200.989 77.7695L200.994 76.7695L199.994 76.7647ZM186.789 77.6137L186.067 76.9225L186.789 77.6137ZM186.769 81.8856L186.04 82.5699L186.058 82.5896L186.078 82.6083L186.769 81.8856ZM198.425 83.6693L197.983 84.5664L197.997 84.5735L198.012 84.5802L198.425 83.6693ZM201.149 86.0823L200.28 86.5772L200.286 86.5869L200.291 86.5966L201.149 86.0823ZM201.113 93.6663L201.979 94.1666L201.985 94.1561L201.113 93.6663ZM198.412 96.3894L197.894 95.5336L197.884 95.5402L198.412 96.3894ZM182.231 97.3682L183.231 97.3729L183.249 93.581L182.249 93.5762L181.249 93.5714L181.231 97.3634L182.231 97.3682ZM182.249 93.5762L182.244 94.5762L193.956 94.6321L193.961 93.6321L193.966 92.6321L182.254 92.5762L182.249 93.5762ZM193.961 93.6321L193.956 94.6321C194.864 94.6364 195.704 94.4505 196.434 94.0259L195.931 93.1615L195.428 92.2972C195.067 92.5073 194.594 92.6351 193.966 92.6321L193.961 93.6321ZM195.931 93.1615L196.449 94.0173C197.165 93.5844 197.732 93.0117 198.115 92.2958L197.234 91.8237L196.352 91.3516C196.154 91.7209 195.853 92.0401 195.414 92.3057L195.931 93.1615ZM197.234 91.8237L198.115 92.2958C198.482 91.6113 198.67 90.8758 198.674 90.1026L197.674 90.0978L196.674 90.093C196.672 90.5358 196.567 90.9509 196.352 91.3516L197.234 91.8237ZM197.674 90.0978L198.674 90.1026C198.677 89.3724 198.517 88.6806 198.182 88.0456L197.297 88.512L196.413 88.9783C196.585 89.3058 196.676 89.6712 196.674 90.093L197.674 90.0978ZM197.297 88.512L198.194 88.069C197.841 87.3546 197.287 86.8059 196.575 86.4247L196.103 87.3063L195.631 88.1878C196.005 88.3878 196.247 88.6429 196.401 88.9549L197.297 88.512ZM196.103 87.3063L196.637 86.4608C195.937 86.0183 195.12 85.8216 194.238 85.8173L194.233 86.8173L194.229 87.8173C194.818 87.8201 195.249 87.9493 195.569 88.1517L196.103 87.3063ZM194.233 86.8173L194.238 85.8173L189.294 85.7937L189.29 86.7937L189.285 87.7937L194.229 87.8173L194.233 86.8173ZM189.29 86.7937L189.294 85.7937C187.834 85.7868 186.599 85.5425 185.567 85.0901L185.165 86.006L184.764 86.922C186.094 87.5049 187.609 87.7857 189.285 87.7937L189.29 86.7937ZM185.165 86.006L185.597 85.1038C184.606 84.6304 183.842 83.9628 183.279 83.0963L182.441 83.641L181.602 84.1857C182.373 85.3736 183.425 86.2827 184.734 86.9082L185.165 86.006ZM182.441 83.641L183.291 83.1151C182.774 82.2791 182.492 81.223 182.498 79.8972L181.498 79.8925L180.498 79.8877C180.491 81.5059 180.837 82.9488 181.59 84.1669L182.441 83.641ZM181.498 79.8925L182.498 79.8972C182.504 78.8199 182.768 77.8419 183.291 76.9439L182.427 76.4409L181.563 75.9378C180.859 77.146 180.505 78.469 180.498 79.8877L181.498 79.8925ZM182.427 76.4409L183.291 76.9439C183.814 76.046 184.539 75.3243 185.486 74.7734L184.983 73.909L184.48 73.0447C183.245 73.7633 182.266 74.7295 181.563 75.9378L182.427 76.4409ZM184.983 73.909L185.504 74.7623C186.421 74.2019 187.485 73.913 188.727 73.9189L188.732 72.9189L188.737 71.9189C187.162 71.9114 185.727 72.2825 184.462 73.0557L184.983 73.909ZM188.732 72.9189L188.727 73.9189L200.007 73.9727L200.012 72.9728L200.016 71.9728L188.737 71.9189L188.732 72.9189ZM200.012 72.9728L199.012 72.968L198.994 76.7599L199.994 76.7647L200.994 76.7695L201.012 72.9775L200.012 72.9728ZM199.994 76.7647L199.998 75.7647L189.15 75.7129L189.146 76.7129L189.141 77.7129L199.989 77.7647L199.994 76.7647ZM189.146 76.7129L189.15 75.7129C187.939 75.7072 186.87 76.0823 186.067 76.9225L186.789 77.6137L187.512 78.3049C187.866 77.9346 188.369 77.7092 189.141 77.7129L189.146 76.7129ZM186.789 77.6137L186.067 76.9225C185.312 77.7113 184.92 78.675 184.915 79.7648L185.915 79.7695L186.915 79.7743C186.918 79.2001 187.109 78.7266 187.512 78.3049L186.789 77.6137ZM185.915 79.7695L184.915 79.7648C184.91 80.8336 185.301 81.7823 186.04 82.5699L186.769 81.8856L187.498 81.2014C187.091 80.7675 186.912 80.3055 186.915 79.7743L185.915 79.7695ZM186.769 81.8856L186.078 82.6083C186.918 83.4121 188.039 83.7557 189.304 83.7618L189.309 82.7618L189.314 81.7618C188.402 81.7574 187.83 81.517 187.46 81.163L186.769 81.8856ZM189.309 82.7618L189.304 83.7618L194.008 83.7842L194.013 82.7842L194.018 81.7842L189.314 81.7618L189.309 82.7618ZM194.013 82.7842L194.008 83.7842C195.665 83.7921 196.975 84.0704 197.983 84.5664L198.425 83.6693L198.866 82.7722C197.511 82.105 195.88 81.7931 194.018 81.7842L194.013 82.7842ZM198.425 83.6693L198.012 84.5802C199.052 85.0514 199.791 85.7188 200.28 86.5772L201.149 86.0823L202.018 85.5875C201.301 84.3281 200.224 83.3868 198.837 82.7584L198.425 83.6693ZM201.149 86.0823L200.291 86.5966C200.812 87.4648 201.097 88.5726 201.091 89.9701L202.091 89.9749L203.09 89.9797C203.098 88.3052 202.756 86.818 202.007 85.5681L201.149 86.0823ZM202.091 89.9749L201.091 89.9701C201.085 91.1114 200.804 92.175 200.241 93.1764L201.113 93.6663L201.985 94.1561C202.713 92.8597 203.083 91.4624 203.09 89.9797L202.091 89.9749ZM201.113 93.6663L200.247 93.166C199.69 94.13 198.913 94.9181 197.894 95.5336L198.412 96.3894L198.929 97.2451C200.222 96.4637 201.245 95.4363 201.979 94.1665L201.113 93.6663ZM198.412 96.3894L197.884 95.5402C196.941 96.1263 195.818 96.433 194.476 96.4266L194.471 97.4266L194.466 98.4266C196.132 98.4345 197.636 98.0497 198.94 97.2386L198.412 96.3894ZM194.471 97.4266L194.476 96.4266L182.236 96.3682L182.231 97.3682L182.226 98.3681L194.466 98.4266L194.471 97.4266Z" fill="black" mask="url(#path-3-outside-1_63_43)"/>
<g filter="url(#filter0_d_63_43)">
<path d="M234.479 40.2212V44.8045M243.146 40.2212V44.8045M247.479 53.9712C248.054 53.9712 248.605 54.2126 249.011 54.6424C249.417 55.0722 249.646 55.6551 249.646 56.2629V74.5962C249.646 77.0273 248.733 79.3589 247.107 81.078C245.482 82.7971 243.278 83.7629 240.979 83.7629H227.979C225.681 83.7629 223.476 82.7971 221.851 81.078C220.225 79.3589 219.312 77.0273 219.312 74.5962V56.2629C219.312 55.6551 219.541 55.0722 219.947 54.6424C220.353 54.2126 220.904 53.9712 221.479 53.9712H251.812C254.111 53.9712 256.315 54.937 257.941 56.656C259.566 58.3751 260.479 60.7067 260.479 63.1379C260.479 65.569 259.566 67.9006 257.941 69.6197C256.315 71.3388 254.111 72.3045 251.812 72.3045H249.646M225.812 40.2212V44.8045" stroke="black" stroke-width="5" stroke-linecap="round" stroke-linejoin="round"/>
</g>
<defs>
<filter id="filter0_d_63_43" x="208.812" y="35.6378" width="60" height="63" filterUnits="userSpaceOnUse" color-interpolation-filters="sRGB">
<feFlood flood-opacity="0" result="BackgroundImageFix"/>
<feColorMatrix in="SourceAlpha" type="matrix" values="0 0 0 0 0 0 0 0 0 0 0 0 0 0 0 0 0 0 127 0" result="hardAlpha"/>
<feOffset dy="4"/>
<feGaussianBlur stdDeviation="2"/>
<feComposite in2="hardAlpha" operator="out"/>
<feColorMatrix type="matrix" values="0 0 0 0 0 0 0 0 0 0 0 0 0 0 0 0 0 0 0.25 0"/>
<feBlend mode="normal" in2="BackgroundImageFix" result="effect1_dropShadow_63_43"/>
<feBlend mode="normal" in="SourceGraphic" in2="effect1_dropShadow_63_43" result="shape"/>
</filter>
</defs>
</svg>
