<svg width="25" height="24" viewBox="0 0 25 24" fill="none" xmlns="http://www.w3.org/2000/svg">
<path d="M16.5 16L18.5 18L22.5 14M21.5 10V8C21.4996 7.64928 21.4071 7.30481 21.2315 7.00116C21.056 6.69752 20.8037 6.44536 20.5 6.27L13.5 2.27C13.196 2.09446 12.8511 2.00205 12.5 2.00205C12.1489 2.00205 11.804 2.09446 11.5 2.27L4.5 6.27C4.19626 6.44536 3.94398 6.69752 3.76846 7.00116C3.59294 7.30481 3.50036 7.64928 3.5 8V16C3.50036 16.3507 3.59294 16.6952 3.76846 16.9988C3.94398 17.3025 4.19626 17.5546 4.5 17.73L11.5 21.73C11.804 21.9055 12.1489 21.998 12.5 21.998C12.8511 21.998 13.196 21.9055 13.5 21.73L15.5 20.59M8 4.27L17 9.42M3.79 7L12.5 12M12.5 12L21.21 7M12.5 12V22" stroke="black" stroke-width="2" stroke-linecap="round" stroke-linejoin="round"/>
</svg>
